<?xml version="1.0" encoding="utf-8"?>
<!-- Generator: Adobe Illustrator 21.0.0, SVG Export Plug-In . SVG Version: 6.00 Build 0)  -->
<svg version="1.1" id="calendar-1" xmlns="http://www.w3.org/2000/svg" xmlns:xlink="http://www.w3.org/1999/xlink" x="0px" y="0px"
	 viewBox="0 0 32 32" style="enable-background:new 0 0 32 32;" xml:space="preserve">
<style type="text/css">
	.st0{fill:#FFFFFF;}
</style>
<rect x="9" y="18" class="st0" width="2" height="2"/>
<rect x="13" y="18" class="st0" width="2" height="2"/>
<rect x="17" y="18" class="st0" width="2" height="2"/>
<rect x="21" y="22" class="st0" width="2" height="2"/>
<rect x="9" y="22" class="st0" width="2" height="2"/>
<rect x="13" y="22" class="st0" width="2" height="2"/>
<rect x="17" y="22" class="st0" width="2" height="2"/>
<rect x="21" y="18" class="st0" width="2" height="2"/>
<path class="st0" d="M23,4V2h-2v2H11V2H9v2H3v26h26V4H23z M27,28H5V14h22V28z M27,12H5V6h4v2h2V6h10v2h2V6h4V12z"/>
</svg>
