<?xml version="1.0" encoding="utf-8"?>
<!-- Generator: Adobe Illustrator 21.0.0, SVG Export Plug-In . SVG Version: 6.00 Build 0)  -->
<svg version="1.1" id="keyboard" xmlns="http://www.w3.org/2000/svg" xmlns:xlink="http://www.w3.org/1999/xlink" x="0px" y="0px"
	 viewBox="0 0 32 32" style="enable-background:new 0 0 32 32;" xml:space="preserve">
<style type="text/css">
	.st0{fill:#FFFFFF;}
</style>
<rect x="5" y="13" class="st0" width="2" height="2"/>
<rect x="9" y="13" class="st0" width="2" height="2"/>
<rect x="13" y="13" class="st0" width="2" height="2"/>
<rect x="17" y="13" class="st0" width="2" height="2"/>
<rect x="21" y="13" class="st0" width="2" height="2"/>
<rect x="25" y="13" class="st0" width="2" height="2"/>
<rect x="7" y="17" class="st0" width="2" height="2"/>
<rect x="11" y="17" class="st0" width="2" height="2"/>
<rect x="15" y="17" class="st0" width="2" height="2"/>
<rect x="19" y="17" class="st0" width="2" height="2"/>
<rect x="23" y="17" class="st0" width="2" height="2"/>
<rect x="25" y="21" class="st0" width="2" height="2"/>
<rect x="5" y="21" class="st0" width="2" height="2"/>
<rect x="9" y="21" class="st0" width="14" height="2"/>
<path class="st0" d="M17,9V5h-2v4H1v18h30V9H17z M29,25H3V11h26V25z"/>
</svg>
