<?xml version="1.0" encoding="utf-8"?>
<!-- Generator: Adobe Illustrator 21.0.0, SVG Export Plug-In . SVG Version: 6.00 Build 0)  -->
<svg version="1.1" id="transform" xmlns="http://www.w3.org/2000/svg" xmlns:xlink="http://www.w3.org/1999/xlink" x="0px" y="0px"
	 viewBox="0 0 32 32" style="enable-background:new 0 0 32 32;" xml:space="preserve">
<style type="text/css">
	.st0{fill:#FFFFFF;}
</style>
<path class="st0" d="M28,10V4h-6v2h-3V4h-6v2h-3V4H4v6h2v3H4v6h2v3H4v6h6v-2h3v2h6v-2h3v2h6v-6h-2v-3h2v-6h-2v-3H28z M24,6h2v2h-2V6
	z M15,6h2v2h-2V6z M6,6h2v2H6V6z M6,15h2v2H6V15z M8,26H6v-2h2V26z M17,26h-2v-2h2V26z M26,26h-2v-2h2V26z M26,17h-2v-2h2V17z
	 M24,13h-2v6h2v3h-2v2h-3v-2h-6v2h-3v-2H8v-3h2v-6H8v-3h2V8h3v2h6V8h3v2h2V13z"/>
</svg>
