<?xml version="1.0" encoding="utf-8"?>
<!-- Generator: Adobe Illustrator 19.2.0, SVG Export Plug-In . SVG Version: 6.00 Build 0)  -->
<svg version="1.1" id="Layer_1" xmlns="http://www.w3.org/2000/svg" xmlns:xlink="http://www.w3.org/1999/xlink" x="0px" y="0px"
	 viewBox="0 0 920 260" style="enable-background:new 0 0 920 260;" xml:space="preserve">
<style type="text/css">
	.st0{fill:#264399;}
</style>
<g>
	<g>
		<path class="st0" d="M381.7,208.4h-17.3c-28.7,0-51.9-23.3-51.9-51.9v0V54.6c0-1.1,0.9-2,2-2H345c1.1,0,2,0.9,2,2v101.9v0
			c0,14.3,11.6,26,26,26h0c14.3,0,26-11.6,26-26v0V54.6c0-1.1,0.9-2,2-2h30.6c1.1,0,2,0.9,2,2v101.9v0
			C433.6,185.2,410.3,208.4,381.7,208.4z"/>
		<path class="st0" d="M119.7,187.4c-1.4,0.4-2,2.1-1,3.2c9.5,10.9,23.6,17.9,39.2,17.9h17c28.7,0,52-23.3,52-52l-0.3-102
			c0-1.1-0.9-2-2-2h-56c-1.1,0-2,0.9-2,2v22c0,1.1,0.9,2,2,2h24.3v78c0,14.3-11.5,26-26,26c-4.8,0-9.9-1.4-13.8-3.7L119.7,187.4z"/>
		<path class="st0" d="M613.9,208.4h-91.2c-1.1,0-2-0.9-2-2V54.6c0-1.1,0.9-2,2-2h30.6c1.1,0,2,0.9,2,2l0,127.9h58.6
			c1.1,0,2,0.9,2,2v22C615.9,207.5,615,208.4,613.9,208.4z"/>
		<path class="st0" d="M726,51.5c-28.7,0-51.9,23.3-51.9,51.9v0v51.9v0c0,28.7,23.3,51.9,51.9,51.9h17.3c28.7,0,51.9-23.3,51.9-51.9
			v0v-51.9v0c0-28.7-23.3-51.9-51.9-51.9H726z M760.7,103.4v51.9v0c0,14.3-11.6,26-26,26h0c-14.3,0-26-11.6-26-26v0v-51.9v0
			c0-14.3,11.6-26,26-26h0C749,77.5,760.7,89.1,760.7,103.4L760.7,103.4z"/>
	</g>
	<g>
		<path class="st0" d="M866,0L866,0c29.8,0,54,24.2,54,54v152c0,29.8-24.2,54-54,54h0v-34l0,0c11,0,20-9,20-20V54c0-11-9-20-20-20
			l0,0V0z"/>
		<path class="st0" d="M54,0L54,0C24.2,0,0,24.2,0,54l0,152c0,29.8,24.2,54,54,54h0v-34h0c-11,0-20-9-20-20V54c0-11,9-20,20-20h0V0z
			"/>
	</g>
</g>
</svg>
