<?xml version="1.0" encoding="utf-8"?>
<!-- Generator: Adobe Illustrator 19.2.0, SVG Export Plug-In . SVG Version: 6.00 Build 0)  -->
<svg version="1.1" id="Layer_1" xmlns="http://www.w3.org/2000/svg" xmlns:xlink="http://www.w3.org/1999/xlink" x="0px" y="0px"
	 viewBox="0 0 920 260" style="enable-background:new 0 0 920 260;" xml:space="preserve">
<style type="text/css">
	.st0{fill:#FFFFFF;}
</style>
<title>logo_julo</title>
<g>
	<g>
		<path class="st0" d="M381.7,208.4h-17.3c-28.7,0-51.9-23.3-51.9-51.9l0,0l0,0V54.6c0-1.1,0.9-2,2-2H345c1.1,0,2,0.9,2,2v101.9l0,0
			c0,14.4,11.6,26,26,26l0,0l0,0c14.4,0,26-11.6,26-26l0,0l0,0V54.6c0-1.1,0.9-2,2-2h30.6c1.1,0,2,0.9,2,2v101.9l0,0
			C433.6,185.2,410.3,208.4,381.7,208.4L381.7,208.4z"/>
		<path class="st0" d="M119.8,187.4c-1.1,0.3-1.7,1.4-1.4,2.4c0.1,0.3,0.2,0.6,0.4,0.8c9.9,11.3,24.2,17.9,39.2,17.9h17
			c28.7,0,52-23.3,52-52l-0.3-102c0-1.1-0.9-2-2-2h-56c-1.1,0-2,0.9-2,2v22c0,1.1,0.9,2,2,2h24.3v78c0,14.3-11.6,26-25.9,26
			c0,0-0.1,0-0.1,0c-4.8,0-9.6-1.3-13.8-3.7L119.8,187.4z"/>
		<path class="st0" d="M613.9,208.4h-91.2c-1.1,0-2-0.9-2-2V54.6c0-1.1,0.9-2,2-2h30.6c1.1,0,2,0.9,2,2v127.9h58.6c1.1,0,2,0.9,2,2
			v22C615.9,207.6,615,208.4,613.9,208.4z"/>
		<path class="st0" d="M726,51.5c-28.7,0-51.9,23.3-51.9,51.9l0,0l0,0v51.9l0,0c0,28.7,23.2,51.9,51.9,52c0,0,0,0,0,0h17.3
			c28.7,0,51.9-23.3,51.9-51.9l0,0l0,0v-51.9l0,0c0-28.7-23.3-51.9-51.9-51.9l0,0L726,51.5L726,51.5z M760.6,103.4v51.9l0,0
			c0,14.4-11.6,26-26,26l0,0l0,0c-14.4,0-26-11.6-26-26l0,0l0,0v-51.9l0,0c0-14.4,11.6-26,26-26l0,0
			C749,77.4,760.6,89.1,760.6,103.4L760.6,103.4L760.6,103.4z"/>
	</g>
	<g>
		<path class="st0" d="M866,0L866,0c29.8,0,54,24.2,54,54l0,0v152c0,29.8-24.2,54-54,54l0,0v-34l0,0c11,0,20-9,20-20V54
			c0-11-9-20-20-20l0,0V0z"/>
		<path class="st0" d="M54,0L54,0C24.2,0,0,24.2,0,54l0,0v152c0,29.8,24.2,54,54,54l0,0v-34l0,0c-11,0-20-9-20-20V54
			c0-11,9-20,20-20l0,0V0z"/>
	</g>
</g>
</svg>
