<?xml version="1.0" encoding="utf-8"?>
<!-- Generator: Adobe Illustrator 21.0.0, SVG Export Plug-In . SVG Version: 6.00 Build 0)  -->
<svg version="1.1" id="Layer_1" xmlns="http://www.w3.org/2000/svg" xmlns:xlink="http://www.w3.org/1999/xlink" x="0px" y="0px"
	 viewBox="0 0 70 70" style="enable-background:new 0 0 70 70;" xml:space="preserve">
<style type="text/css">
	.st0{fill:#296F9B;}
	.st1{fill:#FFFFFF;}
</style>
<title>rec</title>
<rect y="0" class="st0" width="70" height="70"/>
<g id="Layer_2">
	<g id="Layer_1-2">
		<polygon class="st1" points="16.8,53.2 16.8,38.6 9.5,38.6 9.5,60.5 31.4,60.5 31.4,53.2 		"/>
		<polygon class="st1" points="53.2,9.5 53.2,24.1 45.9,24.1 45.9,9.5 38.6,9.5 38.6,31.4 60.5,31.4 60.5,9.5 		"/>
		<path class="st1" d="M38.6,38.6v21.9h21.9V38.6H38.6z M53.2,53.2h-7.3v-7.3h7.3V53.2z"/>
		<polygon class="st1" points="24.1,9.5 24.1,24.1 16.8,24.1 16.8,16.8 9.5,16.8 9.5,31.4 31.4,31.4 31.4,9.5 		"/>
	</g>
</g>
</svg>
