<svg id="Layer_1" data-name="Layer 1" xmlns="http://www.w3.org/2000/svg" viewBox="0 0 920 260">
  <defs>
    <style>
      .cls-1 {
        fill: #fff;
      }

      .cls-2 {
        fill: #47ea71;
      }
    </style>
  </defs>
  <title>logo_julo</title>
  <g>
    <g>
      <path class="cls-1" d="M421.66,578.43H404.34a51.94,51.94,0,0,1-51.94-51.94h0V424.6a2,2,0,0,1,2-2H385a2,2,0,0,1,2,2V526.49h0a26,26,0,0,0,26,26h0a26,26,0,0,0,26-26h0V424.6a2,2,0,0,1,2-2H471.6a2,2,0,0,1,2,2V526.49h0A51.94,51.94,0,0,1,421.66,578.43Z" transform="translate(-40 -370)"/>
      <path class="cls-1" d="M159.75,557.39a2,2,0,0,0-1,3.25,52,52,0,0,0,39.19,17.88h17a52,52,0,0,0,52-52l-0.33-102a2,2,0,0,0-2-2h-56a2,2,0,0,0-2,2v22a2,2,0,0,0,2,2h24.33v78a25.94,25.94,0,0,1-26,26,27.76,27.76,0,0,1-13.8-3.74Z" transform="translate(-40 -370)"/>
      <path class="cls-1" d="M653.92,578.43H562.69a2,2,0,0,1-2-2V424.6a2,2,0,0,1,2-2h30.63a2,2,0,0,1,2,2V552.46h58.6a2,2,0,0,1,2,2v22A2,2,0,0,1,653.92,578.43Z" transform="translate(-40 -370)"/>
      <path class="cls-1" d="M766,421.48a51.94,51.94,0,0,0-51.94,51.94h0v51.94h0A51.94,51.94,0,0,0,766,577.31h17.31a51.94,51.94,0,0,0,51.94-51.94h0V473.43h0a51.94,51.94,0,0,0-51.94-51.94H766Zm34.63,51.94v51.94h0a26,26,0,0,1-26,26h0a26,26,0,0,1-26-26h0V473.43h0a26,26,0,0,1,26-26h0a26,26,0,0,1,26,26h0Z" transform="translate(-40 -370)"/>
    </g>
    <g>
      <path class="cls-2" d="M906,370h0a54,54,0,0,1,54,54V576a54,54,0,0,1-54,54h0V596h0a20,20,0,0,0,20-20V424a20,20,0,0,0-20-20h0V370Z" transform="translate(-40 -370)"/>
      <path class="cls-2" d="M94,370h0a54,54,0,0,0-54,54V576a54,54,0,0,0,54,54h0V596h0a20,20,0,0,1-20-20V424a20,20,0,0,1,20-20h0V370Z" transform="translate(-40 -370)"/>
    </g>
  </g>
</svg>
