<?xml version="1.0" encoding="utf-8"?>
<!-- Generator: Adobe Illustrator 21.0.0, SVG Export Plug-In . SVG Version: 6.00 Build 0)  -->
<svg version="1.1" id="Layer_1" xmlns="http://www.w3.org/2000/svg" xmlns:xlink="http://www.w3.org/1999/xlink" x="0px" y="0px"
	 viewBox="0 0 630 474" style="enable-background:new 0 0 630 474;" xml:space="preserve">
<style type="text/css">
	.st0{fill:#FFFFFF;}
</style>
<g>
	<rect x="40.5" y="0.4" class="st0" width="40" height="40"/>
	<path class="st0" d="M40.5,120.4v240c0,29.6-16.1,55.4-40,69.3v43.9c46.6-16.5,80-60.9,80-113.2v-240H40.5z"/>
	<path class="st0" d="M290.5,120.4v120c0,44.2-35.8,80-80,80h0h0c-44.2,0-80-35.8-80-80v-120h-40v120c0,66.3,53.7,120,120,120h0h0
		c30.7,0,58.8-11.6,80-30.6v30.6h40v-120v-120H290.5z"/>
	<rect x="340.5" y="0.4" class="st0" width="40" height="360"/>
	<path class="st0" d="M509.5,120.4c-66.3,0-120,53.7-120,120s53.7,120,120,120s120-53.7,120-120S575.8,120.4,509.5,120.4z
		 M509.5,320.4c-44.2,0-80-35.8-80-80c0-44.2,35.8-80,80-80s80,35.8,80,80C589.5,284.6,553.7,320.4,509.5,320.4z"/>
</g>
</svg>
