<?xml version="1.0" encoding="utf-8"?>
<!-- Generator: Adobe Illustrator 21.0.0, SVG Export Plug-In . SVG Version: 6.00 Build 0)  -->
<svg version="1.1" id="Layer_1" xmlns="http://www.w3.org/2000/svg" xmlns:xlink="http://www.w3.org/1999/xlink" x="0px" y="0px"
	 viewBox="0 0 100 70" style="enable-background:new 0 0 100 70;" xml:space="preserve">
<style type="text/css">
	.st0{fill:#1F2A4D;}
</style>
<g>
	<g>
		<path class="st0" d="M0,59.7v-7.4c0-1.2,1-2.2,2.2-2.2l6.2,0v1.8l-4.9,0c-0.4,0-0.7,0.3-0.7,0.7v6.8c0,0.4,0.3,0.7,0.7,0.7h4.9
			v1.9l-6.2,0C1,61.9,0,60.9,0,59.7z"/>
		<path class="st0" d="M40.9,59.7v-7.4c0-1.2,1-2.2,2.2-2.2l6.2,0v1.8l-4.9,0c-0.4,0-0.7,0.3-0.7,0.7v6.8c0,0.4,0.3,0.7,0.7,0.7h4.9
			v1.9l-6.2,0C41.9,61.9,40.9,60.9,40.9,59.7z"/>
		<path class="st0" d="M16,56.9v-3.1h2.8l0,8.2H16v-3.3h-2.7V62h-2.9v-8.2h2.9v3.1H16z"/>
		<path class="st0" d="M87.7,53.8h2.8l0,8.2h-2.8v-4.8L84.9,62h-2.7v-8.2h2.9v4.6L87.7,53.8z"/>
		<path class="st0" d="M22.7,56.9H26l0-0.7c0-0.4-0.3-0.7-0.7-0.7h-4.5v-1.8h5.4c1.4,0,2.6,1.1,2.6,2.6V62h-6.2
			c-1.2,0-2.2-1-2.2-2.2v-0.7C20.4,57.9,21.4,56.9,22.7,56.9z M26,60v-1.3h-2c-0.4,0-0.7,0.3-0.7,0.7l0,0c0,0.4,0.3,0.7,0.7,0.7H26z
			"/>
		<path class="st0" d="M59.3,58.7h-5.7l0,0.7c0,0.4,0.3,0.7,0.7,0.7h5v2h-6.2c-1.2,0-2.2-1-2.2-2.2V56c0-1.2,1-2.2,2.2-2.2h4
			c1.2,0,2.2,1,2.2,2.2V58.7z M53.8,56.2v0.7h2.9v-0.7c0-0.4-0.3-0.7-0.7-0.7h-1.6C54.1,55.6,53.8,55.9,53.8,56.2z"/>
		<path class="st0" d="M78.2,62h-6.4v-8.2h6.4c1.1,0,2,0.9,2,2v0c0,1.1-0.9,2-2,2h-0.1h0.1c1.1,0,2,0.9,2,2V60
			C80.2,61.1,79.3,62,78.2,62z M76.7,58.7h-2l0,1.3h2c0.4,0,0.7-0.3,0.7-0.7l0,0C77.3,59,77,58.7,76.7,58.7z M74.7,55.6v1.3h2
			c0.4,0,0.7-0.3,0.7-0.7l0,0c0-0.4-0.3-0.7-0.7-0.7H74.7z"/>
		<path class="st0" d="M67.6,62h-3.5l0,3.1h-2.8V53.8h6.2c1.2,0,2.2,1,2.2,2.2v3.8C69.8,61,68.8,62,67.6,62z M64.2,55.6V60h2
			c0.4,0,0.7-0.3,0.7-0.7v-3.1c0-0.4-0.3-0.7-0.7-0.7H64.2z"/>
		<path class="st0" d="M100,62h-5.1c-1.2,0-2.2-1-2.2-2.2V56c0-1.2,1-2.2,2.2-2.2h5.1v1.8h-4c-0.4,0-0.7,0.3-0.7,0.7v3.1
			c0,0.4,0.3,0.7,0.7,0.7h4V62z"/>
		<path class="st0" d="M37.1,62h-6.2v-8c0-1.2,1-2.2,2.2-2.2h5.8v2h-4.6c-0.4,0-0.7,0.3-0.7,0.7l0,1.1h3.5c1.2,0,2.2,1,2.2,2.2v2
			C39.3,61,38.3,62,37.1,62z M36.4,59.3V58c0-0.4-0.3-0.7-0.7-0.7h-2V60h2C36.1,60,36.4,59.7,36.4,59.3z"/>
	</g>
	<g>
		<path class="st0" d="M62.9,8.2h-6.4c-8,0-14.4,6.5-14.4,14.4s6.5,14.4,14.4,14.4h6.4c0-1.8-1.5-3.3-3.3-3.3h-6.4
			c-6.1,0-11.1-5-11.1-11.1s5-11.1,11.1-11.1h6.4C61.4,11.6,62.9,10.1,62.9,8.2z"/>
		<path class="st0" d="M59.8,28.2h-5.6c-3.1,0-5.6-2.5-5.6-5.6s2.5-5.6,5.6-5.6h5.6c0,0.6-0.5,1.1-1.1,1.1h-5.6
			c-2.5,0-4.4,2-4.4,4.4s2,4.4,4.4,4.4h5.6C59.3,27.1,59.8,27.6,59.8,28.2z"/>
		<path class="st0" d="M62.9,7.8c-0.2-1.6-1.6-2.9-3.3-2.9h-6.4c-9.8,0-17.8,8-17.8,17.8s8,17.8,17.8,17.8h6.4
			c1.7,0,3.1-1.3,3.3-2.9h-6.4c-8.2,0-14.9-6.7-14.9-14.9S48.2,7.8,56.4,7.8L62.9,7.8L62.9,7.8z"/>
		<path class="st0" d="M59.7,28.7h-5.5c-3.3,0-6-2.7-6-6s2.7-6,6-6h5.5l0,0c-0.2-0.4-0.6-0.7-1-0.7h-5.6c-3.7,0-6.7,3-6.7,6.7
			s3,6.7,6.7,6.7h5.6C59.1,29.3,59.5,29.1,59.7,28.7z"/>
	</g>
</g>
</svg>
