<?xml version="1.0" standalone="no"?>
<!DOCTYPE svg PUBLIC "-//W3C//DTD SVG 1.1//EN" "http://www.w3.org/Graphics/SVG/1.1/DTD/svg11.dtd" >
<svg>
<metadata>
Created by FontForge 20090914 at Sun Feb 12 17:33:50 2017
 By www-data
Copyright (c) 2004, 2005 Tristan Grimmer
Copyright (c) 2014 Manchson
 
Permission is hereby granted, free of charge, to any person obtaining a copy of this software and associated documentation files (the "Software"), to deal in the Software without restriction, including without limitation the rights to use, copy, modify, merge, publish, distribute, sublicense, and/or sell copies of the Software, and to permit persons to whom the Software is furnished to do so, subject to the following conditions:
 
The above copyright notice and this permission notice shall be included in all copies or substantial portions of the Software.
 
THE SOFTWARE IS PROVIDED "AS IS", WITHOUT WARRANTY OF ANY KIND, EXPRESS OR IMPLIED, INCLUDING BUT NOT LIMITED TO THE WARRANTIES OF MERCHANTABILITY, FITNESS FOR A PARTICULAR PURPOSE AND NONINFRINGEMENT. IN NO EVENT SHALL THE AUTHORS OR COPYRIGHT HOLDERS BE LIABLE FOR ANY CLAIM, DAMAGES OR OTHER LIABILITY, WHETHER IN AN ACTION OF CONTRACT, TORT OR OTHERWISE, ARISING FROM, OUT OF OR IN CONNECTION WITH THE SOFTWARE OR THE USE OR OTHER DEALINGS IN THE SOFTWARE.
</metadata>
<defs>
<font id="basis33" horiz-adv-x="448" >
  <font-face 
    font-family="basis33"
    font-weight="400"
    font-stretch="normal"
    units-per-em="1024"
    panose-1="2 0 6 9 0 0 0 0 0 0"
    ascent="819"
    descent="-205"
    x-height="384"
    cap-height="512"
    bbox="0 -320 448 704"
    underline-thickness="51"
    underline-position="125"
    unicode-range="U+0020-U+2317"
  />
<missing-glyph 
d="M384 -128v704h-320v-704h320zM0 -192v832h448v-832h-448z" />
    <glyph glyph-name=".notdef" 
d="M384 -128v704h-320v-704h320zM0 -192v832h448v-832h-448z" />
    <glyph glyph-name="space" unicode=" " 
 />
    <glyph glyph-name="exclam" unicode="!" 
d="M192 0v64h64v-64h-64zM192 128v384h64v-384h-64z" />
    <glyph glyph-name="quotedbl" unicode="&#x22;" 
d="M128 384v192h64v-192h-64zM256 384v192h64v-192h-64z" />
    <glyph glyph-name="numbersign" unicode="#" 
d="M256 192v128h-64v-128h64zM64 0v128h-64v64h128v128h-64v64h128v128h64v-128h64v128h64v-128h64v-64h-128v-128h64v-64h-128v-128h-64v128h-64v-128h-64z" />
    <glyph glyph-name="dollar" unicode="$" 
d="M320 64v128h64v-128h-64zM64 256v128h64v-128h-64zM192 -64v64h-128v64h128v128h-64v64h64v128h-64v64h64v64h64v-64h128v-64h-128v-128h64v-64h-64v-128h64v-64h-64v-64h-64z" />
    <glyph glyph-name="percent" unicode="%" 
d="M64 0v64h64v-64h-64zM320 0v64h64v-64h-64zM128 64v128h64v-128h-64zM256 64v128h64v-128h-64zM384 64v128h64v-128h-64zM320 192v64h64v-64h-64zM64 256v64h64v-64h-64zM192 192v128h64v-128h-64zM0 320v128h64v-128h-64zM128 320v128h64v-128h-64zM256 320v128h64v-128
h-64zM64 448v64h64v-64h-64zM320 448v64h64v-64h-64z" />
    <glyph glyph-name="ampersand" unicode="&#x26;" 
d="M128 0v64h192v-64h-192zM384 0v64h64v-64h-64zM320 64v128h64v-128h-64zM64 64v192h64v-192h-64zM256 192v64h64v-64h-64zM128 256v64h128v-64h-128zM384 192v128h64v-128h-64zM64 320v128h64v-128h-64zM256 320v128h64v-128h-64zM128 448v64h128v-64h-128z" />
    <glyph glyph-name="quotesingle" unicode="'" 
d="M192 384v192h64v-192h-64z" />
    <glyph glyph-name="parenleft" unicode="(" 
d="M256 -128v64h64v-64h-64zM192 -64v128h64v-128h-64zM128 64v320h64v-320h-64zM192 384v128h64v-128h-64zM256 512v64h64v-64h-64z" />
    <glyph glyph-name="parenright" unicode=")" 
d="M128 -128v64h64v-64h-64zM192 -64v128h64v-128h-64zM256 64v320h64v-320h-64zM192 384v128h64v-128h-64zM128 512v64h64v-64h-64z" />
    <glyph glyph-name="asterisk" unicode="*" 
d="M64 128v64h64v-64h-64zM320 128v64h64v-64h-64zM64 256v64h64v-64h-64zM320 256v64h64v-64h-64zM192 64v128h-64v64h64v128h64v-128h64v-64h-64v-128h-64z" />
    <glyph glyph-name="plus" unicode="+" 
d="M192 64v128h-128v64h128v128h64v-128h128v-64h-128v-128h-64z" />
    <glyph glyph-name="comma" unicode="," 
d="M64 -128v64h64v-64h-64zM128 -64v192h64v-192h-64z" />
    <glyph glyph-name="hyphen" unicode="-" 
d="M64 192v64h320v-64h-320z" />
    <glyph glyph-name="period" unicode="." 
d="M128 0v128h64v-128h-64z" />
    <glyph glyph-name="slash" unicode="/" 
d="M64 -64v128h64v-128h-64zM128 64v128h64v-128h-64zM192 192v128h64v-128h-64zM256 320v128h64v-128h-64zM320 448v128h64v-128h-64z" />
    <glyph glyph-name="zero" unicode="0" 
d="M128 0v64h192v-64h-192zM192 192v128h64v-128h-64zM64 64v384h64v-256h64v-64h-64v-64h-64zM320 64v256h-64v64h64v64h64v-384h-64zM128 448v64h192v-64h-192z" />
    <glyph glyph-name="one" unicode="1" 
d="M64 320v64h64v-64h-64zM64 0v64h128v320h-64v64h64v64h64v-448h128v-64h-320z" />
    <glyph glyph-name="two" unicode="2" 
d="M64 0v128h64v-64h256v-64h-320zM128 128v64h64v-64h-64zM192 192v64h64v-64h-64zM256 256v64h64v-64h-64zM64 384v64h64v-64h-64zM320 320v128h64v-128h-64zM128 448v64h192v-64h-192z" />
    <glyph glyph-name="three" unicode="3" 
d="M128 0v64h192v-64h-192zM64 64v64h64v-64h-64zM320 64v192h64v-192h-64zM192 256v64h128v-64h-128zM64 384v64h64v-64h-64zM320 320v128h64v-128h-64zM128 448v64h192v-64h-192z" />
    <glyph glyph-name="four" unicode="4" 
d="M128 256v64h64v-64h-64zM192 320v64h64v-64h-64zM320 0v128h-256v128h64v-64h192v192h-64v64h64v64h64v-320h64v-64h-64v-128h-64z" />
    <glyph glyph-name="five" unicode="5" 
d="M128 0v64h192v-64h-192zM64 64v64h64v-64h-64zM320 64v192h64v-192h-64zM64 256v256h320v-64h-256v-128h192v-64h-256z" />
    <glyph glyph-name="six" unicode="6" 
d="M128 0v64h192v-64h-192zM320 64v192h64v-192h-64zM64 64v320h64v-64h192v-64h-192v-192h-64zM128 384v64h64v-64h-64zM192 448v64h128v-64h-128z" />
    <glyph glyph-name="seven" unicode="7" 
d="M128 0v128h64v-128h-64zM192 128v128h64v-128h-64zM256 256v128h64v-128h-64zM320 384v64h-256v64h320v-128h-64z" />
    <glyph glyph-name="eight" unicode="8" 
d="M128 0v64h192v-64h-192zM64 64v192h64v-192h-64zM320 64v192h64v-192h-64zM128 256v64h192v-64h-192zM64 320v128h64v-128h-64zM320 320v128h64v-128h-64zM128 448v64h192v-64h-192z" />
    <glyph glyph-name="nine" unicode="9" 
d="M128 0v64h128v-64h-128zM256 64v64h64v-64h-64zM64 256v192h64v-192h-64zM320 128v64h-192v64h192v192h64v-320h-64zM128 448v64h192v-64h-192z" />
    <glyph glyph-name="colon" unicode=":" 
d="M192 0v128h64v-128h-64zM192 256v128h64v-128h-64z" />
    <glyph glyph-name="semicolon" unicode=";" 
d="M128 -128v64h64v-64h-64zM192 -64v192h64v-192h-64zM192 256v128h64v-128h-64z" />
    <glyph glyph-name="less" unicode="&#x3c;" 
d="M256 64v64h128v-64h-128zM128 128v64h128v-64h-128zM0 192v64h128v-64h-128zM128 256v64h128v-64h-128zM256 320v64h128v-64h-128z" />
    <glyph glyph-name="equal" unicode="=" 
d="M64 128v64h384v-64h-384zM64 256v64h384v-64h-384z" />
    <glyph glyph-name="greater" unicode="&#x3e;" 
d="M64 64v64h128v-64h-128zM192 128v64h128v-64h-128zM320 192v64h128v-64h-128zM192 256v64h128v-64h-128zM64 320v64h128v-64h-128z" />
    <glyph glyph-name="question" unicode="?" 
d="M192 0v64h64v-64h-64zM192 128v128h64v-128h-64zM256 256v64h64v-64h-64zM64 384v64h64v-64h-64zM320 320v128h64v-128h-64zM128 448v64h192v-64h-192z" />
    <glyph glyph-name="at" unicode="@" 
d="M128 0v64h256v-64h-256zM64 64v64h64v-64h-64zM128 192v128h64v-128h-64zM0 128v256h64v-256h-64zM192 128v64h64v128h-64v64h128v-192h64v-64h-192zM384 192v192h64v-192h-64zM64 384v64h64v-64h-64zM320 384v64h64v-64h-64zM128 448v64h192v-64h-192z" />
    <glyph glyph-name="A" unicode="A" 
d="M64 0v192h64v-192h-64zM384 0v192h64v-192h-64zM128 192v192h64v-128h128v128h64v-192h-256zM192 384v128h128v-128h-128z" />
    <glyph glyph-name="B" unicode="B" 
d="M384 64v192h64v-192h-64zM64 0v512h256v-64h-192v-128h192v128h64v-192h-256v-192h256v-64h-320z" />
    <glyph glyph-name="C" unicode="C" 
d="M192 0v64h192v-64h-192zM128 64v64h64v-64h-64zM384 64v64h64v-64h-64zM64 128v256h64v-256h-64zM128 384v64h64v-64h-64zM384 384v64h64v-64h-64zM192 448v64h192v-64h-192z" />
    <glyph glyph-name="D" unicode="D" 
d="M320 64v64h64v-64h-64zM384 128v256h64v-256h-64zM320 384v64h64v-64h-64zM64 0v512h256v-64h-192v-384h192v-64h-256z" />
    <glyph glyph-name="E" unicode="E" 
d="M64 0v512h320v-64h-256v-128h192v-64h-192v-192h256v-64h-320z" />
    <glyph glyph-name="F" unicode="F" 
d="M64 0v512h320v-64h-256v-128h192v-64h-192v-256h-64z" />
    <glyph glyph-name="G" unicode="G" 
d="M192 0v64h192v-64h-192zM128 64v64h64v-64h-64zM384 64v128h-128v64h192v-192h-64zM64 128v256h64v-256h-64zM128 384v64h64v-64h-64zM384 384v64h64v-64h-64zM192 448v64h192v-64h-192z" />
    <glyph glyph-name="H" unicode="H" 
d="M64 0v512h64v-192h256v192h64v-512h-64v256h-256v-256h-64z" />
    <glyph glyph-name="I" unicode="I" 
d="M128 0v64h64v384h-64v64h192v-64h-64v-384h64v-64h-192z" />
    <glyph glyph-name="J" unicode="J" 
d="M64 0v64h192v-64h-192zM256 64v384h-128v64h192v-448h-64z" />
    <glyph glyph-name="K" unicode="K" 
d="M384 0v64h64v-64h-64zM320 64v64h64v-64h-64zM256 128v64h64v-64h-64zM256 320v64h64v-64h-64zM320 384v64h64v-64h-64zM64 0v512h64v-256h64v64h64v-128h-128v-192h-64zM384 448v64h64v-64h-64z" />
    <glyph glyph-name="L" unicode="L" 
d="M64 0v512h64v-448h256v-64h-320z" />
    <glyph glyph-name="M" unicode="M" 
d="M192 128v128h64v-128h-64zM128 256v128h64v-128h-64zM256 256v128h64v-128h-64zM0 0v512h128v-128h-64v-384h-64zM384 0v384h-64v128h128v-512h-64z" />
    <glyph glyph-name="N" unicode="N" 
d="M256 128v128h64v-128h-64zM192 256v128h64v-128h-64zM64 0v512h128v-128h-64v-384h-64zM320 0v128h64v384h64v-512h-128z" />
    <glyph glyph-name="O" unicode="O" 
d="M192 0v64h128v-64h-128zM128 64v64h64v-64h-64zM320 64v64h64v-64h-64zM64 128v256h64v-256h-64zM384 128v256h64v-256h-64zM128 384v64h64v-64h-64zM320 384v64h64v-64h-64zM192 448v64h128v-64h-128z" />
    <glyph glyph-name="P" unicode="P" 
d="M320 256v192h64v-192h-64zM64 0v512h256v-64h-192v-192h192v-64h-192v-192h-64z" />
    <glyph glyph-name="Q" unicode="Q" 
d="M192 0v64h128v-64h-128zM384 -64v128h64v-128h-64zM128 64v64h64v-64h-64zM320 64v64h64v-64h-64zM64 128v256h64v-256h-64zM384 128v256h64v-256h-64zM128 384v64h64v-64h-64zM320 384v64h64v-64h-64zM192 448v64h128v-64h-128z" />
    <glyph glyph-name="R" unicode="R" 
d="M384 0v64h64v-64h-64zM320 64v64h64v-64h-64zM320 256v192h64v-192h-64zM64 0v512h256v-64h-192v-192h192v-128h-64v64h-128v-192h-64z" />
    <glyph glyph-name="S" unicode="S" 
d="M128 0v64h256v-64h-256zM64 64v64h64v-64h-64zM384 64v128h64v-128h-64zM256 192v64h128v-64h-128zM128 256v64h128v-64h-128zM64 320v128h64v-128h-64zM384 384v64h64v-64h-64zM128 448v64h256v-64h-256z" />
    <glyph glyph-name="T" unicode="T" 
d="M192 0v448h-192v64h448v-64h-192v-448h-64z" />
    <glyph glyph-name="U" unicode="U" 
d="M128 0v64h256v-64h-256zM64 64v448h64v-448h-64zM384 64v448h64v-448h-64z" />
    <glyph glyph-name="V" unicode="V" 
d="M192 0v128h64v-128h-64zM128 128v128h64v-128h-64zM256 128v128h64v-128h-64zM64 256v128h64v-128h-64zM320 256v128h64v-128h-64zM0 384v128h64v-128h-64zM384 384v128h64v-128h-64z" />
    <glyph glyph-name="W" unicode="W" 
d="M64 0v192h64v128h64v-192h-64v-128h-64zM320 0v128h-64v192h64v-128h64v-192h-64zM192 320v128h64v-128h-64zM0 192v320h64v-320h-64zM384 192v320h64v-320h-64z" />
    <glyph glyph-name="X" unicode="X" 
d="M64 0v128h64v-128h-64zM384 0v128h64v-128h-64zM128 128v64h64v-64h-64zM320 128v64h64v-64h-64zM192 192v128h128v-128h-128zM128 320v64h64v-64h-64zM320 320v64h64v-64h-64zM64 384v128h64v-128h-64zM384 384v128h64v-128h-64z" />
    <glyph glyph-name="Y" unicode="Y" 
d="M192 0v256h64v-256h-64zM128 256v64h64v-64h-64zM256 256v64h64v-64h-64zM64 320v64h64v-64h-64zM320 320v64h64v-64h-64zM0 384v128h64v-128h-64zM384 384v128h64v-128h-64z" />
    <glyph glyph-name="Z" unicode="Z" 
d="M64 0v128h64v-64h320v-64h-384zM128 128v64h64v-64h-64zM192 192v64h64v-64h-64zM256 256v64h64v-64h-64zM320 320v64h64v-64h-64zM384 384v64h-320v64h384v-128h-64z" />
    <glyph glyph-name="bracketleft" unicode="[" 
d="M128 -128v704h192v-64h-128v-576h128v-64h-192z" />
    <glyph glyph-name="backslash" unicode="\" 
d="M320 -64v128h64v-128h-64zM256 64v128h64v-128h-64zM192 192v128h64v-128h-64zM128 320v128h64v-128h-64zM64 448v128h64v-128h-64z" />
    <glyph glyph-name="bracketright" unicode="]" 
d="M128 -128v64h128v576h-128v64h192v-704h-192z" />
    <glyph glyph-name="asciicircum" unicode="^" 
d="M64 192v128h64v-128h-64zM320 192v128h64v-128h-64zM128 320v128h64v-128h-64zM256 320v128h64v-128h-64zM192 448v128h64v-128h-64z" />
    <glyph glyph-name="underscore" unicode="_" 
d="M0 -64v64h448v-64h-448z" />
    <glyph glyph-name="grave" unicode="`" 
d="M192 448v64h64v-64h-64zM128 512v64h64v-64h-64z" />
    <glyph glyph-name="a" unicode="a" 
d="M64 64v128h64v-128h-64zM128 0v64h192v128h-192v64h192v64h64v-320h-256zM128 320v64h192v-64h-192z" />
    <glyph glyph-name="b" unicode="b" 
d="M320 64v256h64v-256h-64zM64 0v576h64v-192h192v-64h-192v-256h192v-64h-256z" />
    <glyph glyph-name="c" unicode="c" 
d="M128 0v64h192v-64h-192zM320 64v64h64v-64h-64zM64 64v256h64v-256h-64zM320 256v64h64v-64h-64zM128 320v64h192v-64h-192z" />
    <glyph glyph-name="d" unicode="d" 
d="M64 64v256h64v-256h-64zM128 0v64h192v256h-192v64h192v192h64v-576h-256z" />
    <glyph glyph-name="e" unicode="e" 
d="M128 0v64h192v-64h-192zM320 64v64h64v-64h-64zM64 64v256h64v-64h192v64h64v-128h-256v-128h-64zM128 320v64h192v-64h-192z" />
    <glyph glyph-name="f" unicode="f" 
d="M128 0v320h-64v64h64v128h64v-128h128v-64h-128v-320h-64zM192 512v64h192v-64h-192z" />
    <glyph glyph-name="g" unicode="g" 
d="M128 -192v64h192v-64h-192zM64 -128v128h64v-128h-64zM320 -128v128h64v-128h-64zM128 0v64h192v-64h-192zM64 64v64h64v-64h-64zM128 128v64h128v-64h-128zM64 192v128h64v-128h-64zM256 192v128h64v-128h-64zM128 320v64h128v-64h-128zM320 320v64h64v-64h-64z" />
    <glyph glyph-name="h" unicode="h" 
d="M320 0v320h64v-320h-64zM64 0v576h64v-192h192v-64h-192v-320h-64z" />
    <glyph glyph-name="i" unicode="i" 
d="M192 0v320h-64v64h128v-384h-64zM192 512v64h64v-64h-64z" />
    <glyph glyph-name="j" unicode="j" 
d="M64 -128v64h192v-64h-192zM256 -64v384h-64v64h128v-448h-64zM256 512v64h64v-64h-64z" />
    <glyph glyph-name="k" unicode="k" 
d="M320 0v64h64v-64h-64zM256 64v64h64v-64h-64zM256 256v64h64v-64h-64zM320 320v64h64v-64h-64zM64 0v576h64v-384h64v64h64v-128h-128v-128h-64z" />
    <glyph glyph-name="l" unicode="l" 
d="M256 0v64h64v-64h-64zM192 64v448h-64v64h128v-512h-64z" />
    <glyph glyph-name="m" unicode="m" 
d="M192 0v320h64v-320h-64zM320 0v320h64v-320h-64zM64 0v384h128v-64h-64v-320h-64zM256 320v64h64v-64h-64z" />
    <glyph glyph-name="n" unicode="n" 
d="M320 0v320h64v-320h-64zM64 0v384h256v-64h-192v-320h-64z" />
    <glyph glyph-name="o" unicode="o" 
d="M128 0v64h192v-64h-192zM64 64v256h64v-256h-64zM320 64v256h64v-256h-64zM128 320v64h192v-64h-192z" />
    <glyph glyph-name="p" unicode="p" 
d="M320 64v256h64v-256h-64zM64 -192v576h256v-64h-192v-256h192v-64h-192v-192h-64z" />
    <glyph glyph-name="q" unicode="q" 
d="M64 64v256h64v-256h-64zM320 -192v192h-192v64h192v256h-192v64h256v-576h-64z" />
    <glyph glyph-name="r" unicode="r" 
d="M320 256v64h64v-64h-64zM64 0v384h64v-64h64v-64h-64v-256h-64zM192 320v64h128v-64h-128z" />
    <glyph glyph-name="s" unicode="s" 
d="M64 0v64h256v-64h-256zM320 64v64h64v-64h-64zM256 128v64h64v-64h-64zM128 192v64h128v-64h-128zM64 256v64h64v-64h-64zM128 320v64h256v-64h-256z" />
    <glyph glyph-name="t" unicode="t" 
d="M192 0v64h192v-64h-192zM128 64v448h64v-128h192v-64h-192v-256h-64z" />
    <glyph glyph-name="u" unicode="u" 
d="M64 64v320h64v-320h-64zM128 0v64h192v320h64v-384h-256z" />
    <glyph glyph-name="v" unicode="v" 
d="M192 0v128h64v-128h-64zM128 128v128h64v-128h-64zM256 128v128h64v-128h-64zM64 256v128h64v-128h-64zM320 256v128h64v-128h-64z" />
    <glyph glyph-name="w" unicode="w" 
d="M64 0v128h64v64h64v-128h-64v-64h-64zM320 0v64h-64v128h64v-64h64v-128h-64zM192 192v128h64v-128h-64zM0 128v256h64v-256h-64zM384 128v256h64v-256h-64z" />
    <glyph glyph-name="x" unicode="x" 
d="M64 0v64h64v-64h-64zM320 0v64h64v-64h-64zM128 64v64h64v-64h-64zM256 64v64h64v-64h-64zM192 128v128h64v-128h-64zM128 256v64h64v-64h-64zM256 256v64h64v-64h-64zM64 320v64h64v-64h-64zM320 320v64h64v-64h-64z" />
    <glyph glyph-name="y" unicode="y" 
d="M128 -192v64h64v-64h-64zM192 -128v192h64v-192h-64zM128 64v192h64v-192h-64zM256 64v192h64v-192h-64zM64 256v128h64v-128h-64zM320 256v128h64v-128h-64z" />
    <glyph glyph-name="z" unicode="z" 
d="M64 0v64h64v64h64v-64h192v-64h-320zM192 128v64h64v-64h-64zM256 192v64h64v-64h-64zM320 256v64h-256v64h320v-128h-64z" />
    <glyph glyph-name="braceleft" unicode="{" 
d="M256 -128v64h128v-64h-128zM192 -64v256h64v-256h-64zM64 192v64h128v-64h-128zM192 256v256h64v-256h-64zM256 512v64h128v-64h-128z" />
    <glyph glyph-name="bar" unicode="|" 
d="M192 -128v704h64v-704h-64z" />
    <glyph glyph-name="braceright" unicode="}" 
d="M64 -128v64h128v-64h-128zM192 -64v256h64v-256h-64zM256 192v64h128v-64h-128zM192 256v256h64v-256h-64zM64 512v64h128v-64h-128z" />
    <glyph glyph-name="asciitilde" unicode="~" 
d="M0 192v64h64v-64h-64zM192 192v64h-128v64h192v-64h128v-64h-192zM384 256v64h64v-64h-64z" />
    <glyph glyph-name="uni007F" 
d="M384 -128v704h-320v-704h320zM0 -192v832h448v-832h-448z" />
    <glyph glyph-name="uni00A0" unicode="&#xa0;" 
 />
    <glyph glyph-name="exclamdown" unicode="&#xa1;" 
d="M192 0v384h64v-384h-64zM192 448v64h64v-64h-64z" />
    <glyph glyph-name="cent" unicode="&#xa2;" 
d="M320 64v64h64v-64h-64zM64 64v256h64v-256h-64zM320 256v64h64v-64h-64zM192 -64v64h-64v64h64v256h-64v64h64v64h64v-64h64v-64h-64v-256h64v-64h-64v-64h-64z" />
    <glyph glyph-name="sterling" unicode="&#xa3;" 
d="M64 0v128h64v-64h256v-64h-320zM128 128v128h-64v64h64v128h64v-128h128v-64h-128v-128h-64zM192 448v64h128v-64h-128z" />
    <glyph glyph-name="currency" unicode="&#xa4;" 
d="M0 0v64h64v-64h-64zM384 0v64h64v-64h-64zM320 128v192h-192v-192h192zM64 64v320h320v-320h-320zM0 384v64h64v-64h-64zM384 384v64h64v-64h-64z" />
    <glyph glyph-name="yen" unicode="&#xa5;" 
d="M192 0v128h-128v64h128v64h64v-64h128v-64h-128v-128h-64zM128 256v64h64v-64h-64zM256 256v64h64v-64h-64zM64 320v64h64v-64h-64zM320 320v64h64v-64h-64zM0 384v128h64v-128h-64zM384 384v128h64v-128h-64z" />
    <glyph glyph-name="brokenbar" unicode="&#xa6;" 
d="M192 -128v320h64v-320h-64zM192 256v320h64v-320h-64z" />
    <glyph glyph-name="section" unicode="&#xa7;" 
d="M128 0v64h192v-64h-192zM64 64v64h64v-64h-64zM320 64v128h64v-128h-64zM192 192v64h64v64h64v-128h-128zM128 256v128h128v-64h-64v-64h-64zM64 384v128h64v-128h-64zM320 448v64h64v-64h-64zM128 512v64h192v-64h-192z" />
    <glyph glyph-name="dieresis" unicode="&#xa8;" 
d="M128 512v64h64v-64h-64zM256 512v64h64v-64h-64z" />
    <glyph glyph-name="copyright" unicode="&#xa9;" 
d="M64 0v64h320v-64h-320zM192 128v64h128v-64h-128zM128 192v128h64v-128h-64zM192 320v64h128v-64h-128zM0 64v384h64v-384h-64zM384 64v384h64v-384h-64zM64 448v64h320v-64h-320z" />
    <glyph glyph-name="ordfeminine" unicode="&#xaa;" 
d="M64 256v64h64v-64h-64zM128 192v64h128v64h-128v64h128v64h64v-256h-192zM128 448v64h128v-64h-128z" />
    <glyph glyph-name="guillemotleft" unicode="&#xab;" 
d="M192 64v64h64v-64h-64zM320 64v64h64v-64h-64zM128 128v64h64v-64h-64zM256 128v64h64v-64h-64zM64 192v64h64v-64h-64zM192 192v64h64v-64h-64zM128 256v64h64v-64h-64zM256 256v64h64v-64h-64zM192 320v64h64v-64h-64zM320 320v64h64v-64h-64z" />
    <glyph glyph-name="logicalnot" unicode="&#xac;" 
d="M256 64v128h-192v64h256v-192h-64z" />
    <glyph glyph-name="uni00AD" unicode="&#xad;" 
d="M128 128v64h192v-64h-192z" />
    <glyph glyph-name="registered" unicode="&#xae;" 
d="M64 0v64h320v-64h-320zM256 128v64h64v-64h-64zM256 256v64h64v-64h-64zM128 128v256h128v-64h-64v-64h64v-64h-64v-64h-64zM0 64v384h64v-384h-64zM384 64v384h64v-384h-64zM64 448v64h320v-64h-320z" />
    <glyph glyph-name="macron" unicode="&#xaf;" 
d="M0 576v64h448v-64h-448z" />
    <glyph glyph-name="degree" unicode="&#xb0;" 
d="M128 320v64h128v-64h-128zM64 384v128h64v-128h-64zM256 384v128h64v-128h-64zM128 512v64h128v-64h-128z" />
    <glyph glyph-name="plusminus" unicode="&#xb1;" 
d="M64 0v64h320v-64h-320zM192 128v128h-128v64h128v128h64v-128h128v-64h-128v-128h-64z" />
    <glyph glyph-name="uni00B2" unicode="&#xb2;" 
d="M64 256v64h64v64h64v-64h128v-64h-256zM192 384v64h64v-64h-64zM256 448v64h64v-64h-64zM64 512v64h192v-64h-192z" />
    <glyph glyph-name="uni00B3" unicode="&#xb3;" 
d="M64 256v64h192v-64h-192zM256 320v64h64v-64h-64zM128 384v64h128v-64h-128zM256 448v64h64v-64h-64zM64 512v64h192v-64h-192z" />
    <glyph glyph-name="acute" unicode="&#xb4;" 
d="M192 448v64h64v-64h-64zM256 512v64h64v-64h-64z" />
    <glyph glyph-name="mu" unicode="&#xb5;" 
d="M0 -128v64h64v-64h-64zM192 0v64h128v-64h-128zM384 0v64h64v-64h-64zM64 -64v448h64v-256h64v-64h-64v-128h-64zM320 64v320h64v-320h-64z" />
    <glyph glyph-name="paragraph" unicode="&#xb6;" 
d="M192 -64v320h-64v64h-64v128h64v64h320v-64h-64v-512h-64v512h-64v-512h-64z" />
    <glyph glyph-name="periodcentered" unicode="&#xb7;" 
d="M128 128v192h192v-192h-192z" />
    <glyph glyph-name="cedilla" unicode="&#xb8;" 
d="M192 -320v64h128v-64h-128zM320 -256v128h-128v128h64v-64h128v-192h-64z" />
    <glyph glyph-name="uni00B9" unicode="&#xb9;" 
d="M64 256v64h64v128h-64v64h64v64h64v-256h64v-64h-192z" />
    <glyph glyph-name="ordmasculine" unicode="&#xba;" 
d="M128 256v64h128v-64h-128zM64 320v192h64v-192h-64zM256 320v192h64v-192h-64zM128 512v64h128v-64h-128z" />
    <glyph glyph-name="guillemotright" unicode="&#xbb;" 
d="M64 64v64h64v-64h-64zM192 64v64h64v-64h-64zM128 128v64h64v-64h-64zM256 128v64h64v-64h-64zM192 192v64h64v-64h-64zM320 192v64h64v-64h-64zM128 256v64h64v-64h-64zM256 256v64h64v-64h-64zM64 320v64h64v-64h-64zM192 320v64h64v-64h-64z" />
    <glyph glyph-name="onequarter" unicode="&#xbc;" 
d="M64 0v128h64v-128h-64zM128 128v128h64v-128h-64zM320 0v64h-128v64h64v64h64v64h64v-128h64v-64h-64v-64h-64zM192 256v128h64v-128h-64zM256 384v128h64v-128h-64zM64 320v256h64v-256h-64zM320 512v128h64v-128h-64z" />
    <glyph glyph-name="onehalf" unicode="&#xbd;" 
d="M64 0v128h64v-128h-64zM256 0v128h64v-64h128v-64h-192zM320 128v64h64v-64h-64zM128 128v128h64v-128h-64zM384 192v64h64v-64h-64zM192 256v128h64v-64h128v-64h-192zM256 384v128h64v-128h-64zM64 320v256h64v-256h-64zM320 512v128h64v-128h-64z" />
    <glyph glyph-name="threequarters" unicode="&#xbe;" 
d="M64 0v128h64v-128h-64zM128 128v128h64v-128h-64zM320 0v64h-128v64h64v64h64v64h64v-128h64v-64h-64v-64h-64zM0 256v64h128v-64h-128zM192 256v64h-64v64h-64v64h64v64h64v-128h64v-128h-64zM256 384v128h64v-128h-64zM0 512v64h128v-64h-128zM320 512v128h64v-128h-64
z" />
    <glyph glyph-name="questiondown" unicode="&#xbf;" 
d="M128 0v64h192v-64h-192zM320 64v64h64v-64h-64zM64 64v128h64v-128h-64zM128 192v64h64v-64h-64zM192 256v128h64v-128h-64zM192 448v64h64v-64h-64z" />
    <glyph glyph-name="Agrave" unicode="&#xc0;" 
d="M64 0v192h64v-192h-64zM384 0v192h64v-192h-64zM128 192v192h64v-128h128v128h64v-192h-256zM192 384v128h128v-128h-128zM256 576v64h64v-64h-64zM192 640v64h64v-64h-64z" />
    <glyph glyph-name="Aacute" unicode="&#xc1;" 
d="M64 0v192h64v-192h-64zM384 0v192h64v-192h-64zM128 192v192h64v-128h128v128h64v-192h-256zM192 384v128h128v-128h-128zM192 576v64h64v-64h-64zM256 640v64h64v-64h-64z" />
    <glyph glyph-name="Acircumflex" unicode="&#xc2;" 
d="M64 0v192h64v-192h-64zM384 0v192h64v-192h-64zM128 192v192h64v-128h128v128h64v-192h-256zM192 384v128h128v-128h-128zM128 576v64h64v-64h-64zM320 576v64h64v-64h-64zM192 640v64h128v-64h-128z" />
    <glyph glyph-name="Atilde" unicode="&#xc3;" 
d="M64 0v192h64v-192h-64zM384 0v192h64v-192h-64zM128 192v192h64v-128h128v128h64v-192h-256zM192 384v128h128v-128h-128zM128 576v64h64v-64h-64zM256 576v64h64v-64h-64zM192 640v64h64v-64h-64zM320 640v64h64v-64h-64z" />
    <glyph glyph-name="Adieresis" unicode="&#xc4;" 
d="M64 0v192h64v-192h-64zM384 0v192h64v-192h-64zM128 192v192h64v-128h128v128h64v-192h-256zM192 384v128h128v-128h-128zM128 576v64h64v-64h-64zM320 576v64h64v-64h-64z" />
    <glyph glyph-name="Aring" unicode="&#xc5;" 
d="M64 0v192h64v-192h-64zM384 0v192h64v-192h-64zM128 192v192h64v-128h128v128h64v-192h-256zM192 384v128h128v-128h-128zM128 512v128h64v-128h-64zM320 512v128h64v-128h-64zM192 640v64h128v-64h-128z" />
    <glyph glyph-name="AE" unicode="&#xc6;" 
d="M0 0v192h64v-192h-64zM128 320v128h64v-128h-64zM256 0v192h-192v128h64v-64h128v192h-64v64h256v-64h-128v-128h64v-64h-64v-192h128v-64h-192z" />
    <glyph glyph-name="Ccedilla" unicode="&#xc7;" 
d="M192 -192v64h64v-64h-64zM256 -128v128h-64v64h192v-64h-64v-128h-64zM128 64v64h64v-64h-64zM384 64v64h64v-64h-64zM64 128v256h64v-256h-64zM128 384v64h64v-64h-64zM384 384v64h64v-64h-64zM192 448v64h192v-64h-192z" />
    <glyph glyph-name="Egrave" unicode="&#xc8;" 
d="M64 0v512h320v-64h-256v-128h192v-64h-192v-192h256v-64h-320zM192 576v64h64v-64h-64zM128 640v64h64v-64h-64z" />
    <glyph glyph-name="Eacute" unicode="&#xc9;" 
d="M64 0v512h320v-64h-256v-128h192v-64h-192v-192h256v-64h-320zM192 576v64h64v-64h-64zM256 640v64h64v-64h-64z" />
    <glyph glyph-name="Ecircumflex" unicode="&#xca;" 
d="M64 0v512h320v-64h-256v-128h192v-64h-192v-192h256v-64h-320zM128 576v64h64v-64h-64zM256 576v64h64v-64h-64zM192 640v64h64v-64h-64z" />
    <glyph glyph-name="Edieresis" unicode="&#xcb;" 
d="M64 0v512h320v-64h-256v-128h192v-64h-192v-192h256v-64h-320zM128 576v64h64v-64h-64zM256 576v64h64v-64h-64z" />
    <glyph glyph-name="Igrave" unicode="&#xcc;" 
d="M128 0v64h64v384h-64v64h192v-64h-64v-384h64v-64h-192zM192 576v64h64v-64h-64zM128 640v64h64v-64h-64z" />
    <glyph glyph-name="Iacute" unicode="&#xcd;" 
d="M128 0v64h64v384h-64v64h192v-64h-64v-384h64v-64h-192zM192 576v64h64v-64h-64zM256 640v64h64v-64h-64z" />
    <glyph glyph-name="Icircumflex" unicode="&#xce;" 
d="M128 0v64h64v384h-64v64h192v-64h-64v-384h64v-64h-192zM128 576v64h64v-64h-64zM256 576v64h64v-64h-64zM192 640v64h64v-64h-64z" />
    <glyph glyph-name="Idieresis" unicode="&#xcf;" 
d="M128 0v64h64v384h-64v64h192v-64h-64v-384h64v-64h-192zM128 576v64h64v-64h-64zM256 576v64h64v-64h-64z" />
    <glyph glyph-name="Eth" unicode="&#xd0;" 
d="M320 64v64h64v-64h-64zM384 128v256h64v-256h-64zM320 384v64h64v-64h-64zM64 0v256h-64v64h64v192h256v-64h-192v-128h128v-64h-128v-192h192v-64h-256z" />
    <glyph glyph-name="Ntilde" unicode="&#xd1;" 
d="M256 128v128h64v-128h-64zM192 256v128h64v-128h-64zM64 0v512h128v-128h-64v-384h-64zM320 0v128h64v384h64v-512h-128zM128 576v64h64v-64h-64zM256 576v64h64v-64h-64zM192 640v64h64v-64h-64zM320 640v64h64v-64h-64z" />
    <glyph glyph-name="Ograve" unicode="&#xd2;" 
d="M192 0v64h128v-64h-128zM128 64v64h64v-64h-64zM320 64v64h64v-64h-64zM64 128v256h64v-256h-64zM384 128v256h64v-256h-64zM128 384v64h64v-64h-64zM320 384v64h64v-64h-64zM192 448v64h128v-64h-128zM256 576v64h64v-64h-64zM192 640v64h64v-64h-64z" />
    <glyph glyph-name="Oacute" unicode="&#xd3;" 
d="M192 0v64h128v-64h-128zM128 64v64h64v-64h-64zM320 64v64h64v-64h-64zM64 128v256h64v-256h-64zM384 128v256h64v-256h-64zM128 384v64h64v-64h-64zM320 384v64h64v-64h-64zM192 448v64h128v-64h-128zM192 576v64h64v-64h-64zM256 640v64h64v-64h-64z" />
    <glyph glyph-name="Ocircumflex" unicode="&#xd4;" 
d="M192 0v64h128v-64h-128zM128 64v64h64v-64h-64zM320 64v64h64v-64h-64zM64 128v256h64v-256h-64zM384 128v256h64v-256h-64zM128 384v64h64v-64h-64zM320 384v64h64v-64h-64zM192 448v64h128v-64h-128zM128 576v64h64v-64h-64zM320 576v64h64v-64h-64zM192 640v64h128
v-64h-128z" />
    <glyph glyph-name="Otilde" unicode="&#xd5;" 
d="M192 0v64h128v-64h-128zM128 64v64h64v-64h-64zM320 64v64h64v-64h-64zM64 128v256h64v-256h-64zM384 128v256h64v-256h-64zM128 384v64h64v-64h-64zM320 384v64h64v-64h-64zM192 448v64h128v-64h-128zM128 576v64h64v-64h-64zM256 576v64h64v-64h-64zM192 640v64h64v-64
h-64zM320 640v64h64v-64h-64z" />
    <glyph glyph-name="Odieresis" unicode="&#xd6;" 
d="M192 0v64h128v-64h-128zM128 64v64h64v-64h-64zM320 64v64h64v-64h-64zM64 128v256h64v-256h-64zM384 128v256h64v-256h-64zM128 384v64h64v-64h-64zM320 384v64h64v-64h-64zM192 448v64h128v-64h-128zM128 576v64h64v-64h-64zM320 576v64h64v-64h-64z" />
    <glyph glyph-name="multiply" unicode="&#xd7;" 
d="M64 64v64h64v-64h-64zM320 64v64h64v-64h-64zM128 128v64h64v-64h-64zM256 128v64h64v-64h-64zM192 192v64h64v-64h-64zM128 256v64h64v-64h-64zM256 256v64h64v-64h-64zM64 320v64h64v-64h-64zM320 320v64h64v-64h-64z" />
    <glyph glyph-name="Oslash" unicode="&#xd8;" 
d="M64 0v64h64v-64h-64zM192 0v64h128v-64h-128zM128 64v64h64v-64h-64zM320 64v64h64v-64h-64zM192 128v128h64v-128h-64zM64 128v256h64v-256h-64zM256 256v128h64v-128h-64zM384 128v256h64v-256h-64zM128 384v64h64v-64h-64zM320 384v64h64v-64h-64zM192 448v64h128v-64
h-128zM384 448v64h64v-64h-64z" />
    <glyph glyph-name="Ugrave" unicode="&#xd9;" 
d="M128 0v64h256v-64h-256zM64 64v448h64v-448h-64zM384 64v448h64v-448h-64zM256 576v64h64v-64h-64zM192 640v64h64v-64h-64z" />
    <glyph glyph-name="Uacute" unicode="&#xda;" 
d="M128 0v64h256v-64h-256zM64 64v448h64v-448h-64zM384 64v448h64v-448h-64zM192 576v64h64v-64h-64zM256 640v64h64v-64h-64z" />
    <glyph glyph-name="Ucircumflex" unicode="&#xdb;" 
d="M128 0v64h256v-64h-256zM64 64v448h64v-448h-64zM384 64v448h64v-448h-64zM128 576v64h64v-64h-64zM320 576v64h64v-64h-64zM192 640v64h128v-64h-128z" />
    <glyph glyph-name="Udieresis" unicode="&#xdc;" 
d="M128 0v64h256v-64h-256zM64 64v448h64v-448h-64zM384 64v448h64v-448h-64zM128 576v64h64v-64h-64zM320 576v64h64v-64h-64z" />
    <glyph glyph-name="Yacute" unicode="&#xdd;" 
d="M192 0v256h64v-256h-64zM128 256v64h64v-64h-64zM256 256v64h64v-64h-64zM64 320v64h64v-64h-64zM320 320v64h64v-64h-64zM0 384v128h64v-128h-64zM384 384v128h64v-128h-64zM192 576v64h64v-64h-64zM256 640v64h64v-64h-64z" />
    <glyph glyph-name="Thorn" unicode="&#xde;" 
d="M320 192v128h64v-128h-64zM64 0v512h64v-128h192v-64h-192v-128h192v-64h-192v-128h-64z" />
    <glyph glyph-name="germandbls" unicode="&#xdf;" 
d="M0 -64v64h64v-64h-64zM384 64v192h64v-192h-64zM320 256v64h64v-64h-64zM64 0v512h64v-128h192v-64h-192v-256h256v-64h-320zM320 384v128h64v-128h-64zM128 512v64h192v-64h-192z" />
    <glyph glyph-name="agrave" unicode="&#xe0;" 
d="M64 64v128h64v-128h-64zM128 0v64h192v128h-192v64h192v64h64v-320h-256zM128 320v64h192v-64h-192zM256 448v64h64v-64h-64zM192 512v64h64v-64h-64z" />
    <glyph glyph-name="aacute" unicode="&#xe1;" 
d="M64 64v128h64v-128h-64zM128 0v64h192v128h-192v64h192v64h64v-320h-256zM128 320v64h192v-64h-192zM192 448v64h64v-64h-64zM256 512v64h64v-64h-64z" />
    <glyph glyph-name="acircumflex" unicode="&#xe2;" 
d="M64 64v128h64v-128h-64zM128 0v64h192v128h-192v64h192v64h64v-320h-256zM128 320v64h192v-64h-192zM128 448v64h64v-64h-64zM256 448v64h64v-64h-64zM192 512v64h64v-64h-64z" />
    <glyph glyph-name="atilde" unicode="&#xe3;" 
d="M64 64v128h64v-128h-64zM128 0v64h192v128h-192v64h192v64h64v-320h-256zM128 320v64h192v-64h-192zM128 448v64h64v-64h-64zM256 448v64h64v-64h-64zM192 512v64h64v-64h-64zM320 512v64h64v-64h-64z" />
    <glyph glyph-name="adieresis" unicode="&#xe4;" 
d="M64 64v128h64v-128h-64zM128 0v64h192v128h-192v64h192v64h64v-320h-256zM128 320v64h192v-64h-192zM128 448v64h64v-64h-64zM256 448v64h64v-64h-64z" />
    <glyph glyph-name="aring" unicode="&#xe5;" 
d="M64 64v128h64v-128h-64zM128 0v64h192v128h-192v64h192v64h64v-320h-256zM128 320v64h192v-64h-192zM192 448v64h64v-64h-64zM128 512v64h64v-64h-64zM256 512v64h64v-64h-64zM192 576v64h64v-64h-64z" />
    <glyph glyph-name="ae" unicode="&#xe6;" 
d="M384 64v64h64v-64h-64zM0 64v128h64v-128h-64zM64 0v64h128v128h-128v64h128v64h64v-64h128v64h64v-128h-192v-128h128v-64h-320zM64 320v64h128v-64h-128zM256 320v64h128v-64h-128z" />
    <glyph glyph-name="ccedilla" unicode="&#xe7;" 
d="M128 -192v64h64v-64h-64zM192 -128v128h-64v64h192v-64h-64v-128h-64zM320 64v64h64v-64h-64zM64 64v256h64v-256h-64zM320 256v64h64v-64h-64zM128 320v64h192v-64h-192z" />
    <glyph glyph-name="egrave" unicode="&#xe8;" 
d="M128 0v64h192v-64h-192zM320 64v64h64v-64h-64zM64 64v256h64v-64h192v64h64v-128h-256v-128h-64zM128 320v64h192v-64h-192zM192 448v64h64v-64h-64zM128 512v64h64v-64h-64z" />
    <glyph glyph-name="eacute" unicode="&#xe9;" 
d="M128 0v64h192v-64h-192zM320 64v64h64v-64h-64zM64 64v256h64v-64h192v64h64v-128h-256v-128h-64zM128 320v64h192v-64h-192zM192 448v64h64v-64h-64zM256 512v64h64v-64h-64z" />
    <glyph glyph-name="ecircumflex" unicode="&#xea;" 
d="M128 0v64h192v-64h-192zM320 64v64h64v-64h-64zM64 64v256h64v-64h192v64h64v-128h-256v-128h-64zM128 320v64h192v-64h-192zM128 448v64h64v-64h-64zM256 448v64h64v-64h-64zM192 512v64h64v-64h-64z" />
    <glyph glyph-name="edieresis" unicode="&#xeb;" 
d="M128 0v64h192v-64h-192zM320 64v64h64v-64h-64zM64 64v256h64v-64h192v64h64v-128h-256v-128h-64zM128 320v64h192v-64h-192zM128 448v64h64v-64h-64zM256 448v64h64v-64h-64z" />
    <glyph glyph-name="igrave" unicode="&#xec;" 
d="M192 0v320h-64v64h128v-384h-64zM192 448v64h64v-64h-64zM128 512v64h64v-64h-64z" />
    <glyph glyph-name="iacute" unicode="&#xed;" 
d="M192 0v320h-64v64h128v-384h-64zM192 448v64h64v-64h-64zM256 512v64h64v-64h-64z" />
    <glyph glyph-name="icircumflex" unicode="&#xee;" 
d="M192 0v320h-64v64h128v-384h-64zM128 448v64h64v-64h-64zM256 448v64h64v-64h-64zM192 512v64h64v-64h-64z" />
    <glyph glyph-name="idieresis" unicode="&#xef;" 
d="M192 0v320h-64v64h128v-384h-64zM128 448v64h64v-64h-64zM256 448v64h64v-64h-64z" />
    <glyph glyph-name="eth" unicode="&#xf0;" 
d="M128 0v64h192v-64h-192zM64 64v192h64v-192h-64zM192 384v64h64v-64h-64zM320 64v192h-192v64h192v128h64v-384h-64zM256 448v64h64v-64h-64zM128 512v64h128v-64h-128zM320 512v64h64v-64h-64z" />
    <glyph glyph-name="ntilde" unicode="&#xf1;" 
d="M320 0v320h64v-320h-64zM64 0v384h256v-64h-192v-320h-64zM64 448v64h64v-64h-64zM192 448v64h64v-64h-64zM128 512v64h64v-64h-64zM256 512v64h64v-64h-64z" />
    <glyph glyph-name="ograve" unicode="&#xf2;" 
d="M128 0v64h192v-64h-192zM64 64v256h64v-256h-64zM320 64v256h64v-256h-64zM128 320v64h192v-64h-192zM192 448v64h64v-64h-64zM128 512v64h64v-64h-64z" />
    <glyph glyph-name="oacute" unicode="&#xf3;" 
d="M128 0v64h192v-64h-192zM64 64v256h64v-256h-64zM320 64v256h64v-256h-64zM128 320v64h192v-64h-192zM192 448v64h64v-64h-64zM256 512v64h64v-64h-64z" />
    <glyph glyph-name="ocircumflex" unicode="&#xf4;" 
d="M128 0v64h192v-64h-192zM64 64v256h64v-256h-64zM320 64v256h64v-256h-64zM128 320v64h192v-64h-192zM128 448v64h64v-64h-64zM256 448v64h64v-64h-64zM192 512v64h64v-64h-64z" />
    <glyph glyph-name="otilde" unicode="&#xf5;" 
d="M128 0v64h192v-64h-192zM64 64v256h64v-256h-64zM320 64v256h64v-256h-64zM128 320v64h192v-64h-192zM128 448v64h64v-64h-64zM256 448v64h64v-64h-64zM192 512v64h64v-64h-64zM320 512v64h64v-64h-64z" />
    <glyph glyph-name="odieresis" unicode="&#xf6;" 
d="M128 0v64h192v-64h-192zM64 64v256h64v-256h-64zM320 64v256h64v-256h-64zM128 320v64h192v-64h-192zM128 448v64h64v-64h-64zM256 448v64h64v-64h-64z" />
    <glyph glyph-name="divide" unicode="&#xf7;" 
d="M192 64v64h64v-64h-64zM64 192v64h320v-64h-320zM192 320v64h64v-64h-64z" />
    <glyph glyph-name="oslash" unicode="&#xf8;" 
d="M64 -64v64h64v-64h-64zM192 128v128h64v-128h-64zM128 0v64h-64v256h64v-192h64v-64h128v-64h-192zM320 64v192h-64v64h-128v64h192v-64h64v-256h-64zM320 384v64h64v-64h-64z" />
    <glyph glyph-name="ugrave" unicode="&#xf9;" 
d="M64 64v320h64v-320h-64zM128 0v64h192v320h64v-384h-256zM192 448v64h64v-64h-64zM128 512v64h64v-64h-64z" />
    <glyph glyph-name="uacute" unicode="&#xfa;" 
d="M64 64v320h64v-320h-64zM128 0v64h192v320h64v-384h-256zM192 448v64h64v-64h-64zM256 512v64h64v-64h-64z" />
    <glyph glyph-name="ucircumflex" unicode="&#xfb;" 
d="M64 64v320h64v-320h-64zM128 0v64h192v320h64v-384h-256zM128 448v64h64v-64h-64zM256 448v64h64v-64h-64zM192 512v64h64v-64h-64z" />
    <glyph glyph-name="udieresis" unicode="&#xfc;" 
d="M64 64v320h64v-320h-64zM128 0v64h192v320h64v-384h-256zM128 448v64h64v-64h-64zM256 448v64h64v-64h-64z" />
    <glyph glyph-name="yacute" unicode="&#xfd;" 
d="M128 -192v64h64v-64h-64zM192 -128v192h64v-192h-64zM128 64v192h64v-192h-64zM256 64v192h64v-192h-64zM64 256v128h64v-128h-64zM320 256v128h64v-128h-64zM192 448v64h64v-64h-64zM256 512v64h64v-64h-64z" />
    <glyph glyph-name="thorn" unicode="&#xfe;" 
d="M320 64v256h64v-256h-64zM64 -128v640h64v-128h192v-64h-192v-256h192v-64h-192v-128h-64z" />
    <glyph glyph-name="ydieresis" unicode="&#xff;" 
d="M128 -192v64h64v-64h-64zM192 -128v192h64v-192h-64zM128 64v192h64v-192h-64zM256 64v192h64v-192h-64zM64 256v128h64v-128h-64zM320 256v128h64v-128h-64zM128 448v64h64v-64h-64zM256 448v64h64v-64h-64z" />
    <glyph glyph-name="Ydieresis" unicode="&#x178;" 
d="M192 0v256h64v-256h-64zM128 256v64h64v-64h-64zM256 256v64h64v-64h-64zM64 320v64h64v-64h-64zM320 320v64h64v-64h-64zM0 384v128h64v-128h-64zM384 384v128h64v-128h-64zM128 576v64h64v-64h-64zM256 576v64h64v-64h-64z" />
    <glyph glyph-name="uni0276" unicode="&#x276;" 
d="M64 0v64h128v-64h-128zM256 0v64h192v-64h-192zM0 64v384h64v-384h-64zM192 64v384h64v-128h128v-64h-128v-192h-64zM64 448v64h128v-64h-128zM256 448v64h192v-64h-192z" />
    <glyph glyph-name="uni0374" unicode="&#x374;" 
d="M192 448v64h64v-64h-64zM256 512v64h64v-64h-64z" />
    <glyph glyph-name="uni0375" unicode="&#x375;" 
d="M64 -128v64h64v-64h-64zM128 -64v192h64v-192h-64z" />
    <glyph glyph-name="uni037A" unicode="&#x37a;" 
d="M192 -192v64h64v-64h-64zM128 -128v128h64v-128h-64z" />
    <glyph glyph-name="uni037E" unicode="&#x37e;" 
d="M64 -128v64h64v-64h-64zM128 -64v192h64v-192h-64zM128 256v128h64v-128h-64z" />
    <glyph glyph-name="tonos" unicode="&#x384;" 
d="M192 448v64h64v-64h-64zM256 512v64h64v-64h-64z" />
    <glyph glyph-name="dieresistonos" unicode="&#x385;" 
d="M64 448v64h64v-64h-64zM192 448v64h64v-64h-64zM320 448v64h64v-64h-64zM256 512v64h64v-64h-64z" />
    <glyph glyph-name="Alphatonos" unicode="&#x386;" 
d="M64 0v192h64v-192h-64zM384 0v192h64v-192h-64zM128 192v192h64v-128h128v128h64v-192h-256zM192 384v128h128v-128h-128zM0 576v128h64v-128h-64z" />
    <glyph glyph-name="anoteleia" unicode="&#x387;" 
d="M128 256v128h128v-128h-128z" />
    <glyph glyph-name="Epsilontonos" unicode="&#x388;" 
d="M64 0v512h320v-64h-256v-128h192v-64h-192v-192h256v-64h-320zM0 576v128h64v-128h-64z" />
    <glyph glyph-name="Etatonos" unicode="&#x389;" 
d="M64 0v512h64v-192h256v192h64v-512h-64v256h-256v-256h-64zM0 576v128h64v-128h-64z" />
    <glyph glyph-name="Iotatonos" unicode="&#x38a;" 
d="M128 0v64h64v384h-64v64h192v-64h-64v-384h64v-64h-192zM0 576v128h64v-128h-64z" />
    <glyph glyph-name="Omicrontonos" unicode="&#x38c;" 
d="M192 0v64h128v-64h-128zM128 64v64h64v-64h-64zM320 64v64h64v-64h-64zM64 128v256h64v-256h-64zM384 128v256h64v-256h-64zM128 384v64h64v-64h-64zM320 384v64h64v-64h-64zM192 448v64h128v-64h-128zM0 576v128h64v-128h-64z" />
    <glyph glyph-name="Upsilontonos" unicode="&#x38e;" 
d="M192 0v256h64v-256h-64zM128 256v64h64v-64h-64zM256 256v64h64v-64h-64zM64 320v64h64v-64h-64zM320 320v64h64v-64h-64zM0 384v128h64v-128h-64zM384 384v128h64v-128h-64zM0 576v128h64v-128h-64z" />
    <glyph glyph-name="Omegatonos" unicode="&#x38f;" 
d="M64 0v64h64v64h64v-128h-128zM320 0v128h64v-64h64v-64h-128zM64 128v256h64v-256h-64zM384 128v256h64v-256h-64zM128 384v64h64v-64h-64zM320 384v64h64v-64h-64zM192 448v64h128v-64h-128zM0 576v128h64v-128h-64z" />
    <glyph glyph-name="iotadieresistonos" unicode="&#x390;" 
d="M256 0v64h64v-64h-64zM192 64v256h-64v64h128v-320h-64zM64 448v64h64v-64h-64zM192 448v64h64v-64h-64zM320 448v64h64v-64h-64zM256 512v64h64v-64h-64z" />
    <glyph glyph-name="Alpha" unicode="&#x391;" 
d="M64 0v192h64v-192h-64zM384 0v192h64v-192h-64zM128 192v192h64v-128h128v128h64v-192h-256zM192 384v128h128v-128h-128z" />
    <glyph glyph-name="Beta" unicode="&#x392;" 
d="M384 64v192h64v-192h-64zM64 0v512h256v-64h-192v-128h192v128h64v-192h-256v-192h256v-64h-320z" />
    <glyph glyph-name="Gamma" unicode="&#x393;" 
d="M64 0v512h384v-64h-320v-448h-64z" />
    <glyph glyph-name="uni0394" unicode="&#x394;" 
d="M64 0v192h64v-128h256v128h64v-192h-384zM128 192v192h64v-192h-64zM320 192v192h64v-192h-64zM192 384v128h128v-128h-128z" />
    <glyph glyph-name="Epsilon" unicode="&#x395;" 
d="M64 0v512h320v-64h-256v-128h192v-64h-192v-192h256v-64h-320z" />
    <glyph glyph-name="Zeta" unicode="&#x396;" 
d="M64 0v128h64v-64h320v-64h-384zM128 128v64h64v-64h-64zM192 192v64h64v-64h-64zM256 256v64h64v-64h-64zM320 320v64h64v-64h-64zM384 384v64h-320v64h384v-128h-64z" />
    <glyph glyph-name="Eta" unicode="&#x397;" 
d="M64 0v512h64v-192h256v192h64v-512h-64v256h-256v-256h-64z" />
    <glyph glyph-name="Theta" unicode="&#x398;" 
d="M192 0v64h128v-64h-128zM128 64v64h64v-64h-64zM320 64v64h64v-64h-64zM192 256v64h128v-64h-128zM64 128v256h64v-256h-64zM384 128v256h64v-256h-64zM128 384v64h64v-64h-64zM320 384v64h64v-64h-64zM192 448v64h128v-64h-128z" />
    <glyph glyph-name="Iota" unicode="&#x399;" 
d="M128 0v64h64v384h-64v64h192v-64h-64v-384h64v-64h-192z" />
    <glyph glyph-name="Kappa" unicode="&#x39a;" 
d="M384 0v64h64v-64h-64zM320 64v64h64v-64h-64zM256 128v64h64v-64h-64zM256 320v64h64v-64h-64zM320 384v64h64v-64h-64zM64 0v512h64v-256h64v64h64v-128h-128v-192h-64zM384 448v64h64v-64h-64z" />
    <glyph glyph-name="Lambda" unicode="&#x39b;" 
d="M64 0v192h64v-192h-64zM384 0v192h64v-192h-64zM128 192v192h64v-192h-64zM320 192v192h64v-192h-64zM192 384v128h128v-128h-128z" />
    <glyph glyph-name="Mu" unicode="&#x39c;" 
d="M192 128v128h64v-128h-64zM128 256v128h64v-128h-64zM256 256v128h64v-128h-64zM0 0v512h128v-128h-64v-384h-64zM384 0v384h-64v128h128v-512h-64z" />
    <glyph glyph-name="Nu" unicode="&#x39d;" 
d="M256 128v128h64v-128h-64zM192 256v128h64v-128h-64zM64 0v512h128v-128h-64v-384h-64zM320 0v128h64v384h64v-512h-128z" />
    <glyph glyph-name="Xi" unicode="&#x39e;" 
d="M64 0v64h384v-64h-384zM128 256v64h256v-64h-256zM64 448v64h384v-64h-384z" />
    <glyph glyph-name="Omicron" unicode="&#x39f;" 
d="M192 0v64h128v-64h-128zM128 64v64h64v-64h-64zM320 64v64h64v-64h-64zM64 128v256h64v-256h-64zM384 128v256h64v-256h-64zM128 384v64h64v-64h-64zM320 384v64h64v-64h-64zM192 448v64h128v-64h-128z" />
    <glyph glyph-name="Pi" unicode="&#x3a0;" 
d="M64 0v512h384v-512h-64v448h-256v-448h-64z" />
    <glyph glyph-name="Rho" unicode="&#x3a1;" 
d="M320 256v192h64v-192h-64zM64 0v512h256v-64h-192v-192h192v-64h-192v-192h-64z" />
    <glyph glyph-name="Sigma" unicode="&#x3a3;" 
d="M64 0v192h64v-128h256v-64h-320zM128 192v64h64v-64h-64zM192 256v64h64v-64h-64zM128 320v64h64v-64h-64zM64 384v128h320v-64h-256v-64h-64z" />
    <glyph glyph-name="Tau" unicode="&#x3a4;" 
d="M192 0v448h-192v64h448v-64h-192v-448h-64z" />
    <glyph glyph-name="Upsilon" unicode="&#x3a5;" 
d="M192 0v256h64v-256h-64zM128 256v64h64v-64h-64zM256 256v64h64v-64h-64zM64 320v64h64v-64h-64zM320 320v64h64v-64h-64zM0 384v128h64v-128h-64zM384 384v128h64v-128h-64z" />
    <glyph glyph-name="Phi" unicode="&#x3a6;" 
d="M0 192v192h64v-192h-64zM384 192v192h64v-192h-64zM192 0v128h-128v64h128v192h-128v64h128v64h64v-64h128v-64h-128v-192h128v-64h-128v-128h-64z" />
    <glyph glyph-name="Chi" unicode="&#x3a7;" 
d="M64 0v128h64v-128h-64zM384 0v128h64v-128h-64zM128 128v64h64v-64h-64zM320 128v64h64v-64h-64zM192 192v128h128v-128h-128zM128 320v64h64v-64h-64zM320 320v64h64v-64h-64zM64 384v128h64v-128h-64zM384 384v128h64v-128h-64z" />
    <glyph glyph-name="Psi" unicode="&#x3a8;" 
d="M0 192v320h64v-320h-64zM192 0v128h-128v64h128v320h64v-320h128v-64h-128v-128h-64zM384 192v320h64v-320h-64z" />
    <glyph glyph-name="uni03A9" unicode="&#x3a9;" 
d="M64 0v64h64v64h64v-128h-128zM320 0v128h64v-64h64v-64h-128zM64 128v256h64v-256h-64zM384 128v256h64v-256h-64zM128 384v64h64v-64h-64zM320 384v64h64v-64h-64zM192 448v64h128v-64h-128z" />
    <glyph glyph-name="Iotadieresis" unicode="&#x3aa;" 
d="M128 0v64h64v320h-64v64h192v-64h-64v-320h64v-64h-192zM128 512v64h64v-64h-64zM256 512v64h64v-64h-64z" />
    <glyph glyph-name="Upsilondieresis" unicode="&#x3ab;" 
d="M192 0v256h64v-256h-64zM128 256v64h64v-64h-64zM256 256v64h64v-64h-64zM64 320v64h64v-64h-64zM320 320v64h64v-64h-64zM0 384v128h64v-128h-64zM384 384v128h64v-128h-64zM128 512v64h64v-64h-64zM256 512v64h64v-64h-64z" />
    <glyph glyph-name="alphatonos" unicode="&#x3ac;" 
d="M128 0v64h192v-64h-192zM384 0v64h64v-64h-64zM64 64v256h64v-256h-64zM320 64v256h64v-256h-64zM128 320v64h192v-64h-192zM384 320v64h64v-64h-64zM192 448v64h64v-64h-64zM256 512v64h64v-64h-64z" />
    <glyph glyph-name="epsilontonos" unicode="&#x3ad;" 
d="M128 0v64h192v-64h-192zM320 64v64h64v-64h-64zM64 64v128h64v-128h-64zM128 192v64h128v-64h-128zM64 256v64h64v-64h-64zM320 256v64h64v-64h-64zM128 320v64h192v-64h-192zM192 448v64h64v-64h-64zM256 512v64h64v-64h-64z" />
    <glyph glyph-name="etatonos" unicode="&#x3ae;" 
d="M320 -192v512h64v-512h-64zM64 0v384h64v-64h64v-64h-64v-256h-64zM192 320v64h128v-64h-128zM192 448v64h64v-64h-64zM256 512v64h64v-64h-64z" />
    <glyph glyph-name="iotatonos" unicode="&#x3af;" 
d="M256 0v64h64v-64h-64zM192 64v256h-64v64h128v-320h-64zM192 448v64h64v-64h-64zM256 512v64h64v-64h-64z" />
    <glyph glyph-name="upsilondieresistonos" unicode="&#x3b0;" 
d="M128 0v64h192v-64h-192zM64 64v320h64v-320h-64zM320 64v320h64v-320h-64zM64 448v64h64v-64h-64zM192 448v64h64v-64h-64zM320 448v64h64v-64h-64zM256 512v64h64v-64h-64z" />
    <glyph glyph-name="alpha" unicode="&#x3b1;" 
d="M128 0v64h192v-64h-192zM384 0v64h64v-64h-64zM64 64v256h64v-256h-64zM320 64v256h64v-256h-64zM128 320v64h192v-64h-192zM384 320v64h64v-64h-64z" />
    <glyph glyph-name="beta" unicode="&#x3b2;" 
d="M320 64v192h64v-192h-64zM256 256v64h64v-64h-64zM64 -128v640h64v-128h128v-64h-128v-256h192v-64h-192v-128h-64zM256 384v128h64v-128h-64zM128 512v64h128v-64h-128z" />
    <glyph glyph-name="gamma" unicode="&#x3b3;" 
d="M192 -192v192h-64v192h64v-128h128v-64h-64v-192h-64zM64 192v192h64v-192h-64zM320 64v320h64v-320h-64z" />
    <glyph glyph-name="delta" unicode="&#x3b4;" 
d="M128 0v64h192v-64h-192zM64 64v256h64v-256h-64zM320 64v256h64v-256h-64zM128 320v64h64v64h64v-64h64v-64h-192zM128 448v64h64v-64h-64zM192 512v64h192v-64h-192z" />
    <glyph glyph-name="epsilon" unicode="&#x3b5;" 
d="M128 0v64h192v-64h-192zM320 64v64h64v-64h-64zM64 64v128h64v-128h-64zM128 192v64h128v-64h-128zM64 256v64h64v-64h-64zM320 256v64h64v-64h-64zM128 320v64h192v-64h-192z" />
    <glyph glyph-name="zeta" unicode="&#x3b6;" 
d="M256 -192v64h64v-64h-64zM320 -128v128h-128v64h192v-192h-64zM128 64v64h64v-64h-64zM64 128v192h64v-192h-64zM128 320v64h64v-64h-64zM192 384v64h64v-64h-64zM256 448v64h-192v64h320v-64h-64v-64h-64z" />
    <glyph glyph-name="eta" unicode="&#x3b7;" 
d="M320 -192v512h64v-512h-64zM64 0v384h64v-64h64v-64h-64v-256h-64zM192 320v64h128v-64h-128z" />
    <glyph glyph-name="theta" unicode="&#x3b8;" 
d="M128 0v64h192v-64h-192zM64 64v448h64v-192h192v192h64v-448h-64v192h-192v-192h-64zM128 512v64h192v-64h-192z" />
    <glyph glyph-name="iota" unicode="&#x3b9;" 
d="M256 0v64h64v-64h-64zM192 64v256h-64v64h128v-320h-64z" />
    <glyph glyph-name="kappa" unicode="&#x3ba;" 
d="M320 0v64h64v-64h-64zM256 64v64h64v-64h-64zM256 256v64h64v-64h-64zM64 0v384h64v-192h64v64h64v-128h-128v-128h-64zM320 320v64h64v-64h-64z" />
    <glyph glyph-name="lambda" unicode="&#x3bb;" 
d="M64 0v128h64v-128h-64zM320 0v128h64v-128h-64zM128 128v192h64v192h64v-192h64v-192h-64v128h-64v-128h-64zM64 512v64h128v-64h-128z" />
    <glyph glyph-name="uni03BC" unicode="&#x3bc;" 
d="M192 0v64h128v-64h-128zM384 0v64h64v-64h-64zM64 -128v512h64v-256h64v-64h-64v-192h-64zM320 64v320h64v-320h-64z" />
    <glyph glyph-name="nu" unicode="&#x3bd;" 
d="M192 0v128h64v-128h-64zM128 128v128h64v-128h-64zM256 128v128h64v-128h-64zM64 256v128h64v-128h-64zM320 256v128h64v-128h-64z" />
    <glyph glyph-name="xi" unicode="&#x3be;" 
d="M256 -192v64h64v-64h-64zM320 -128v128h-128v64h192v-192h-64zM128 64v192h64v-192h-64zM192 256v128h192v-64h-128v-64h-64zM128 384v128h64v-128h-64zM192 512v64h192v-64h-192z" />
    <glyph glyph-name="omicron" unicode="&#x3bf;" 
d="M128 0v64h192v-64h-192zM64 64v256h64v-256h-64zM320 64v256h64v-256h-64zM128 320v64h192v-64h-192z" />
    <glyph glyph-name="pi" unicode="&#x3c0;" 
d="M64 0v384h320v-384h-64v320h-192v-320h-64z" />
    <glyph glyph-name="rho" unicode="&#x3c1;" 
d="M64 -192v512h64v-256h192v-64h-192v-192h-64zM320 64v256h64v-256h-64zM128 320v64h192v-64h-192z" />
    <glyph glyph-name="sigma1" unicode="&#x3c2;" 
d="M256 -192v64h64v-64h-64zM320 -128v128h-192v64h256v-192h-64zM64 64v256h64v-256h-64zM320 256v64h64v-64h-64zM128 320v64h192v-64h-192z" />
    <glyph glyph-name="sigma" unicode="&#x3c3;" 
d="M128 0v64h192v-64h-192zM64 64v256h64v-256h-64zM320 64v256h-192v64h320v-64h-64v-256h-64z" />
    <glyph glyph-name="tau" unicode="&#x3c4;" 
d="M256 0v64h128v-64h-128zM192 64v256h-128v64h320v-64h-128v-256h-64z" />
    <glyph glyph-name="upsilon" unicode="&#x3c5;" 
d="M128 0v64h192v-64h-192zM64 64v320h64v-320h-64zM320 64v320h64v-320h-64z" />
    <glyph glyph-name="phi" unicode="&#x3c6;" 
d="M0 64v256h64v-256h-64zM384 64v256h64v-256h-64zM64 320v64h64v-64h-64zM192 -192v192h-128v64h128v320h192v-64h-128v-256h128v-64h-128v-192h-64z" />
    <glyph glyph-name="chi" unicode="&#x3c7;" 
d="M64 -192v128h64v-128h-64zM320 -192v128h64v-128h-64zM128 -64v128h64v64h-64v128h64v-64h64v64h64v-128h-64v-64h64v-128h-64v64h-64v-64h-64zM64 256v128h64v-128h-64zM320 256v128h64v-128h-64z" />
    <glyph glyph-name="psi" unicode="&#x3c8;" 
d="M0 64v320h64v-320h-64zM384 64v320h64v-320h-64zM192 -192v192h-128v64h128v448h64v-448h128v-64h-128v-192h-64z" />
    <glyph glyph-name="omega" unicode="&#x3c9;" 
d="M64 0v64h128v-64h-128zM256 0v64h128v-64h-128zM192 64v192h64v-192h-64zM0 64v256h64v-256h-64zM384 64v256h64v-256h-64zM64 320v64h64v-64h-64zM320 320v64h64v-64h-64z" />
    <glyph glyph-name="iotadieresis" unicode="&#x3ca;" 
d="M256 0v64h64v-64h-64zM192 64v256h-64v64h128v-320h-64zM128 512v64h64v-64h-64zM256 512v64h64v-64h-64z" />
    <glyph glyph-name="upsilondieresis" unicode="&#x3cb;" 
d="M128 0v64h192v-64h-192zM64 64v320h64v-320h-64zM320 64v320h64v-320h-64zM128 512v64h64v-64h-64zM256 512v64h64v-64h-64z" />
    <glyph glyph-name="omicrontonos" unicode="&#x3cc;" 
d="M128 0v64h192v-64h-192zM64 64v256h64v-256h-64zM320 64v256h64v-256h-64zM128 320v64h192v-64h-192zM192 448v64h64v-64h-64zM256 512v64h64v-64h-64z" />
    <glyph glyph-name="upsilontonos" unicode="&#x3cd;" 
d="M128 0v64h192v-64h-192zM64 64v320h64v-320h-64zM320 64v320h64v-320h-64zM192 448v64h64v-64h-64zM256 512v64h64v-64h-64z" />
    <glyph glyph-name="omegatonos" unicode="&#x3ce;" 
d="M64 0v64h128v-64h-128zM256 0v64h128v-64h-128zM192 64v192h64v-192h-64zM0 64v256h64v-256h-64zM384 64v256h64v-256h-64zM64 320v64h64v-64h-64zM320 320v64h64v-64h-64zM192 448v64h64v-64h-64zM256 512v64h64v-64h-64z" />
    <glyph glyph-name="uni03D0" unicode="&#x3d0;" 
d="M128 0v64h192v-64h-192zM320 64v192h64v-192h-64zM64 64v448h64v-128h128v-64h64v-64h-192v-192h-64zM256 384v128h64v-128h-64zM128 512v64h128v-64h-128z" />
    <glyph glyph-name="theta1" unicode="&#x3d1;" 
d="M128 0v64h192v-64h-192zM0 64v64h128v-64h-128zM320 64v192h-256v256h64v-192h192v192h64v-192h64v-64h-64v-192h-64zM128 512v64h192v-64h-192z" />
    <glyph glyph-name="phi1" unicode="&#x3d5;" 
d="M0 64v256h64v-256h-64zM384 64v256h64v-256h-64zM192 -192v192h-128v64h128v256h-128v64h128v128h64v-128h128v-64h-128v-256h128v-64h-128v-192h-64z" />
    <glyph glyph-name="uni03F1" unicode="&#x3f1;" 
d="M384 -256v64h64v-64h-64zM192 -192v64h192v-64h-192zM128 -128v448h64v-256h192v-64h-192v-128h-64zM384 64v256h64v-256h-64zM192 320v64h192v-64h-192z" />
    <glyph glyph-name="uni03F4" unicode="&#x3f4;" 
d="M192 0v64h128v-64h-128zM128 64v64h64v-64h-64zM320 64v64h64v-64h-64zM64 128v256h64v-64h256v64h64v-256h-64v128h-256v-128h-64zM128 384v64h64v-64h-64zM320 384v64h64v-64h-64zM192 448v64h128v-64h-128z" />
    <glyph glyph-name="uni0400" unicode="&#x400;" 
d="M64 0v512h320v-64h-256v-128h192v-64h-192v-192h256v-64h-320zM192 576v64h64v-64h-64zM128 640v64h64v-64h-64z" />
    <glyph glyph-name="uni0401" unicode="&#x401;" 
d="M64 0v512h320v-64h-256v-128h192v-64h-192v-192h256v-64h-320zM128 576v64h64v-64h-64zM256 576v64h64v-64h-64z" />
    <glyph glyph-name="uni0402" unicode="&#x402;" 
d="M256 0v64h128v-64h-128zM128 0v448h-128v64h384v-64h-192v-128h256v-256h-64v192h-192v-256h-64z" />
    <glyph glyph-name="uni0403" unicode="&#x403;" 
d="M64 0v512h384v-64h-320v-448h-64zM192 576v64h64v-64h-64zM256 640v64h64v-64h-64z" />
    <glyph glyph-name="uni0404" unicode="&#x404;" 
d="M192 0v64h192v-64h-192zM128 64v64h64v-64h-64zM384 64v64h64v-64h-64zM64 128v256h64v-64h192v-64h-192v-128h-64zM128 384v64h64v-64h-64zM384 384v64h64v-64h-64zM192 448v64h192v-64h-192z" />
    <glyph glyph-name="uni0405" unicode="&#x405;" 
d="M128 0v64h256v-64h-256zM64 64v64h64v-64h-64zM384 64v128h64v-128h-64zM256 192v64h128v-64h-128zM128 256v64h128v-64h-128zM64 320v128h64v-128h-64zM384 384v64h64v-64h-64zM128 448v64h256v-64h-256z" />
    <glyph glyph-name="uni0406" unicode="&#x406;" 
d="M128 0v64h64v384h-64v64h192v-64h-64v-384h64v-64h-192z" />
    <glyph glyph-name="uni0407" unicode="&#x407;" 
d="M128 0v64h64v384h-64v64h192v-64h-64v-384h64v-64h-192zM128 576v64h64v-64h-64zM256 576v64h64v-64h-64z" />
    <glyph glyph-name="uni0408" unicode="&#x408;" 
d="M64 0v64h192v-64h-192zM256 64v384h-64v64h128v-448h-64z" />
    <glyph glyph-name="uni0409" unicode="&#x409;" 
d="M0 0v64h64v-64h-64zM384 64v128h64v-128h-64zM64 64v384h64v-384h-64zM256 0v448h-128v64h192v-256h64v-64h-64v-128h64v-64h-128z" />
    <glyph glyph-name="uni040A" unicode="&#x40a;" 
d="M384 64v192h64v-192h-64zM0 0v512h64v-192h192v192h64v-192h64v-64h-64v-192h64v-64h-128v256h-192v-256h-64z" />
    <glyph glyph-name="uni040B" unicode="&#x40b;" 
d="M384 0v256h64v-256h-64zM256 256v64h128v-64h-128zM128 0v448h-128v64h320v-64h-128v-192h64v-64h-64v-192h-64z" />
    <glyph glyph-name="uni040C" unicode="&#x40c;" 
d="M384 0v64h64v-64h-64zM320 64v64h64v-64h-64zM256 128v64h64v-64h-64zM256 320v64h64v-64h-64zM320 384v64h64v-64h-64zM64 0v512h64v-256h64v64h64v-128h-128v-192h-64zM384 448v64h64v-64h-64zM192 576v64h64v-64h-64zM256 640v64h64v-64h-64z" />
    <glyph glyph-name="uni040D" unicode="&#x40d;" 
d="M192 128v128h64v-128h-64zM256 256v128h64v-128h-64zM64 0v512h64v-384h64v-128h-128zM384 0v384h-64v128h128v-512h-64zM256 576v64h128v-64h-128zM128 640v64h128v-64h-128z" />
    <glyph glyph-name="uni040E" unicode="&#x40e;" 
d="M128 0v64h64v-64h-64zM192 64v192h128v-64h-64v-128h-64zM128 256v128h64v-128h-64zM320 256v128h64v-128h-64zM64 384v128h64v-128h-64zM384 384v128h64v-128h-64zM192 576v64h128v-64h-128zM128 640v64h64v-64h-64zM320 640v64h64v-64h-64z" />
    <glyph glyph-name="uni040F" unicode="&#x40f;" 
d="M256 -128v128h-192v512h64v-448h256v448h64v-512h-128v-128h-64z" />
    <glyph glyph-name="uni0410" unicode="&#x410;" 
d="M64 0v192h64v-192h-64zM384 0v192h64v-192h-64zM128 192v192h64v-128h128v128h64v-192h-256zM192 384v128h128v-128h-128z" />
    <glyph glyph-name="uni0411" unicode="&#x411;" 
d="M384 64v192h64v-192h-64zM64 0v512h320v-64h-256v-128h256v-64h-256v-192h256v-64h-320z" />
    <glyph glyph-name="uni0412" unicode="&#x412;" 
d="M384 64v192h64v-192h-64zM64 0v512h256v-64h-192v-128h192v128h64v-192h-256v-192h256v-64h-320z" />
    <glyph glyph-name="uni0413" unicode="&#x413;" 
d="M64 0v512h384v-64h-320v-448h-64z" />
    <glyph glyph-name="uni0414" unicode="&#x414;" 
d="M64 128v320h64v-320h-64zM0 -128v256h64v-64h256v384h-192v64h256v-448h64v-192h-64v128h-320v-128h-64z" />
    <glyph glyph-name="uni0415" unicode="&#x415;" 
d="M64 0v512h320v-64h-256v-128h192v-64h-192v-192h256v-64h-320z" />
    <glyph glyph-name="uni0416" unicode="&#x416;" 
d="M0 0v128h64v-128h-64zM384 0v128h64v-128h-64zM64 128v64h64v-64h-64zM320 128v64h64v-64h-64zM64 320v64h64v-64h-64zM320 320v64h64v-64h-64zM0 384v128h64v-128h-64zM192 0v192h-64v128h64v192h64v-192h64v-128h-64v-192h-64zM384 384v128h64v-128h-64z" />
    <glyph glyph-name="uni0417" unicode="&#x417;" 
d="M128 0v64h192v-64h-192zM64 64v64h64v-64h-64zM320 64v192h64v-192h-64zM192 256v64h128v-64h-128zM64 384v64h64v-64h-64zM320 320v128h64v-128h-64zM128 448v64h192v-64h-192z" />
    <glyph glyph-name="uni0418" unicode="&#x418;" 
d="M192 128v128h64v-128h-64zM256 256v128h64v-128h-64zM64 0v512h64v-384h64v-128h-128zM384 0v384h-64v128h128v-512h-64z" />
    <glyph glyph-name="uni0419" unicode="&#x419;" 
d="M192 128v128h64v-128h-64zM256 256v128h64v-128h-64zM64 0v512h64v-384h64v-128h-128zM384 0v384h-64v128h128v-512h-64zM192 576v64h128v-64h-128zM128 640v64h64v-64h-64zM320 640v64h64v-64h-64z" />
    <glyph glyph-name="uni041A" unicode="&#x41a;" 
d="M384 0v64h64v-64h-64zM320 64v64h64v-64h-64zM256 128v64h64v-64h-64zM256 320v64h64v-64h-64zM320 384v64h64v-64h-64zM64 0v512h64v-256h64v64h64v-128h-128v-192h-64zM384 448v64h64v-64h-64z" />
    <glyph glyph-name="uni041B" unicode="&#x41b;" 
d="M64 0v64h64v-64h-64zM128 64v384h64v-384h-64zM384 0v448h-192v64h256v-512h-64z" />
    <glyph glyph-name="uni041C" unicode="&#x41c;" 
d="M192 128v128h64v-128h-64zM128 256v128h64v-128h-64zM256 256v128h64v-128h-64zM0 0v512h128v-128h-64v-384h-64zM384 0v384h-64v128h128v-512h-64z" />
    <glyph glyph-name="uni041D" unicode="&#x41d;" 
d="M64 0v512h64v-192h256v192h64v-512h-64v256h-256v-256h-64z" />
    <glyph glyph-name="uni041E" unicode="&#x41e;" 
d="M192 0v64h128v-64h-128zM128 64v64h64v-64h-64zM320 64v64h64v-64h-64zM64 128v256h64v-256h-64zM384 128v256h64v-256h-64zM128 384v64h64v-64h-64zM320 384v64h64v-64h-64zM192 448v64h128v-64h-128z" />
    <glyph glyph-name="uni041F" unicode="&#x41f;" 
d="M64 0v512h384v-512h-64v448h-256v-448h-64z" />
    <glyph glyph-name="uni0420" unicode="&#x420;" 
d="M320 256v192h64v-192h-64zM64 0v512h256v-64h-192v-192h192v-64h-192v-192h-64z" />
    <glyph glyph-name="uni0421" unicode="&#x421;" 
d="M192 0v64h192v-64h-192zM128 64v64h64v-64h-64zM384 64v64h64v-64h-64zM64 128v256h64v-256h-64zM128 384v64h64v-64h-64zM384 384v64h64v-64h-64zM192 448v64h192v-64h-192z" />
    <glyph glyph-name="uni0422" unicode="&#x422;" 
d="M192 0v448h-192v64h448v-64h-192v-448h-64z" />
    <glyph glyph-name="uni0423" unicode="&#x423;" 
d="M128 0v64h64v-64h-64zM192 64v192h128v-64h-64v-128h-64zM128 256v128h64v-128h-64zM320 256v128h64v-128h-64zM64 384v128h64v-128h-64zM384 384v128h64v-128h-64z" />
    <glyph glyph-name="uni0424" unicode="&#x424;" 
d="M0 192v192h64v-192h-64zM384 192v192h64v-192h-64zM192 0v128h-128v64h128v192h-128v64h128v64h64v-64h128v-64h-128v-192h128v-64h-128v-128h-64z" />
    <glyph glyph-name="uni0425" unicode="&#x425;" 
d="M64 0v128h64v-128h-64zM384 0v128h64v-128h-64zM128 128v64h64v-64h-64zM320 128v64h64v-64h-64zM192 192v128h128v-128h-128zM128 320v64h64v-64h-64zM320 320v64h64v-64h-64zM64 384v128h64v-128h-64zM384 384v128h64v-128h-64z" />
    <glyph glyph-name="uni0426" unicode="&#x426;" 
d="M384 -128v128h64v-128h-64zM64 0v512h64v-448h192v448h64v-512h-320z" />
    <glyph glyph-name="uni0427" unicode="&#x427;" 
d="M64 192v320h64v-320h-64zM384 0v128h-256v64h256v320h64v-512h-64z" />
    <glyph glyph-name="uni0428" unicode="&#x428;" 
d="M64 0v512h64v-448h64v448h64v-448h64v448h64v-512h-320z" />
    <glyph glyph-name="uni0429" unicode="&#x429;" 
d="M384 -128v128h-320v512h64v-448h64v448h64v-448h64v448h64v-448h64v-192h-64z" />
    <glyph glyph-name="uni042A" unicode="&#x42a;" 
d="M320 64v192h64v-192h-64zM128 0v448h-128v64h192v-192h128v-64h-128v-192h128v-64h-192z" />
    <glyph glyph-name="uni042B" unicode="&#x42b;" 
d="M256 64v192h64v-192h-64zM64 0v512h64v-192h128v-64h-128v-192h128v-64h-192zM384 0v512h64v-512h-64z" />
    <glyph glyph-name="uni042C" unicode="&#x42c;" 
d="M256 64v192h64v-192h-64zM64 0v512h64v-192h128v-64h-128v-192h128v-64h-192z" />
    <glyph glyph-name="uni042D" unicode="&#x42d;" 
d="M128 0v64h192v-64h-192zM64 64v64h64v-64h-64zM320 64v64h64v-64h-64zM384 128v128h-192v64h192v64h64v-256h-64zM64 384v64h64v-64h-64zM320 384v64h64v-64h-64zM128 448v64h192v-64h-192z" />
    <glyph glyph-name="uni042E" unicode="&#x42e;" 
d="M256 0v64h128v-64h-128zM384 64v384h64v-384h-64zM64 0v512h64v-192h64v128h64v-384h-64v192h-64v-256h-64zM256 448v64h128v-64h-128z" />
    <glyph glyph-name="uni042F" unicode="&#x42f;" 
d="M64 0v64h64v-64h-64zM128 64v64h64v-64h-64zM128 256v192h64v-192h-64zM384 0v192h-128v-64h-64v128h192v192h-192v64h256v-512h-64z" />
    <glyph glyph-name="uni0430" unicode="&#x430;" 
d="M64 64v128h64v-128h-64zM128 0v64h192v128h-192v64h192v64h64v-320h-256zM128 320v64h192v-64h-192z" />
    <glyph glyph-name="uni0431" unicode="&#x431;" 
d="M128 0v64h192v-64h-192zM320 64v256h64v-256h-64zM64 64v384h64v-64h192v-64h-192v-256h-64zM128 448v64h192v-64h-192zM320 512v64h64v-64h-64z" />
    <glyph glyph-name="uni0432" unicode="&#x432;" 
d="M320 64v128h64v-128h-64zM320 256v64h64v-64h-64zM64 0v384h256v-64h-192v-64h192v-64h-192v-128h192v-64h-256z" />
    <glyph glyph-name="uni0433" unicode="&#x433;" 
d="M64 0v384h320v-64h-256v-320h-64z" />
    <glyph glyph-name="uni0434" unicode="&#x434;" 
d="M0 -128v192h64v256h64v-256h192v256h-192v64h256v-320h64v-192h-64v128h-320v-128h-64z" />
    <glyph glyph-name="uni0435" unicode="&#x435;" 
d="M128 0v64h192v-64h-192zM320 64v64h64v-64h-64zM64 64v256h64v-64h192v64h64v-128h-256v-128h-64zM128 320v64h192v-64h-192z" />
    <glyph glyph-name="uni0436" unicode="&#x436;" 
d="M0 0v64h64v-64h-64zM384 0v64h64v-64h-64zM64 64v64h64v-64h-64zM320 64v64h64v-64h-64zM64 256v64h64v-64h-64zM320 256v64h64v-64h-64zM0 320v64h64v-64h-64zM192 0v128h-64v128h64v128h64v-128h64v-128h-64v-128h-64zM384 320v64h64v-64h-64z" />
    <glyph glyph-name="uni0437" unicode="&#x437;" 
d="M128 0v64h192v-64h-192zM64 64v64h64v-64h-64zM320 64v128h64v-128h-64zM256 192v64h64v-64h-64zM64 256v64h64v-64h-64zM320 256v64h64v-64h-64zM128 320v64h192v-64h-192z" />
    <glyph glyph-name="uni0438" unicode="&#x438;" 
d="M192 128v128h64v-128h-64zM64 0v384h64v-256h64v-64h-64v-64h-64zM320 0v256h-64v64h64v64h64v-384h-64z" />
    <glyph glyph-name="uni0439" unicode="&#x439;" 
d="M192 128v128h64v-128h-64zM64 0v384h64v-256h64v-64h-64v-64h-64zM320 0v256h-64v64h64v64h64v-384h-64zM192 384v64h64v-64h-64zM128 448v64h64v-64h-64zM256 448v64h64v-64h-64z" />
    <glyph glyph-name="uni043A" unicode="&#x43a;" 
d="M320 0v64h64v-64h-64zM256 64v64h64v-64h-64zM256 256v64h64v-64h-64zM64 0v384h64v-192h64v64h64v-128h-128v-128h-64zM320 320v64h64v-64h-64z" />
    <glyph glyph-name="uni043B" unicode="&#x43b;" 
d="M64 0v64h64v-64h-64zM320 0v320h-128v-256h-64v320h256v-384h-64z" />
    <glyph glyph-name="uni043C" unicode="&#x43c;" 
d="M192 128v128h64v-128h-64zM64 0v384h64v-64h64v-64h-64v-256h-64zM320 0v256h-64v64h64v64h64v-384h-64z" />
    <glyph glyph-name="uni043D" unicode="&#x43d;" 
d="M64 0v384h64v-128h192v128h64v-384h-64v192h-192v-192h-64z" />
    <glyph glyph-name="uni043E" unicode="&#x43e;" 
d="M128 0v64h192v-64h-192zM64 64v256h64v-256h-64zM320 64v256h64v-256h-64zM128 320v64h192v-64h-192z" />
    <glyph glyph-name="uni043F" unicode="&#x43f;" 
d="M64 0v384h320v-384h-64v320h-192v-320h-64z" />
    <glyph glyph-name="uni0440" unicode="&#x440;" 
d="M320 64v256h64v-256h-64zM64 -192v576h256v-64h-192v-256h192v-64h-192v-192h-64z" />
    <glyph glyph-name="uni0441" unicode="&#x441;" 
d="M128 0v64h192v-64h-192zM320 64v64h64v-64h-64zM64 64v256h64v-256h-64zM320 256v64h64v-64h-64zM128 320v64h192v-64h-192z" />
    <glyph glyph-name="uni0442" unicode="&#x442;" 
d="M192 0v320h-128v64h320v-64h-128v-320h-64z" />
    <glyph glyph-name="uni0443" unicode="&#x443;" 
d="M128 -192v64h64v-64h-64zM192 -128v192h64v-192h-64zM128 64v192h64v-192h-64zM256 64v192h64v-192h-64zM64 256v128h64v-128h-64zM320 256v128h64v-128h-64z" />
    <glyph glyph-name="uni0444" unicode="&#x444;" 
d="M0 64v256h64v-256h-64zM384 64v256h64v-256h-64zM192 -192v192h-128v64h128v256h-128v64h128v128h64v-128h128v-64h-128v-256h128v-64h-128v-192h-64z" />
    <glyph glyph-name="uni0445" unicode="&#x445;" 
d="M64 0v64h64v-64h-64zM320 0v64h64v-64h-64zM128 64v64h64v-64h-64zM256 64v64h64v-64h-64zM192 128v128h64v-128h-64zM128 256v64h64v-64h-64zM256 256v64h64v-64h-64zM64 320v64h64v-64h-64zM320 320v64h64v-64h-64z" />
    <glyph glyph-name="uni0446" unicode="&#x446;" 
d="M384 -128v128h-320v384h64v-320h192v320h64v-320h64v-192h-64z" />
    <glyph glyph-name="uni0447" unicode="&#x447;" 
d="M64 192v192h64v-192h-64zM320 0v128h-192v64h192v192h64v-384h-64z" />
    <glyph glyph-name="uni0448" unicode="&#x448;" 
d="M64 0v384h64v-320h64v320h64v-320h64v320h64v-384h-320z" />
    <glyph glyph-name="uni0449" unicode="&#x449;" 
d="M384 -128v128h-320v384h64v-320h64v320h64v-320h64v320h64v-320h64v-192h-64z" />
    <glyph glyph-name="uni044A" unicode="&#x44a;" 
d="M320 64v128h64v-128h-64zM128 0v320h-128v64h192v-128h128v-64h-128v-128h128v-64h-192z" />
    <glyph glyph-name="uni044B" unicode="&#x44b;" 
d="M256 64v128h64v-128h-64zM64 0v384h64v-128h128v-64h-128v-128h128v-64h-192zM384 0v384h64v-384h-64z" />
    <glyph glyph-name="uni044C" unicode="&#x44c;" 
d="M320 64v128h64v-128h-64zM128 0v384h64v-128h128v-64h-128v-128h128v-64h-192z" />
    <glyph glyph-name="uni044D" unicode="&#x44d;" 
d="M128 0v64h192v-64h-192zM64 64v64h64v-64h-64zM64 256v64h64v-64h-64zM320 64v128h-128v64h128v64h64v-256h-64zM128 320v64h192v-64h-192z" />
    <glyph glyph-name="uni044E" unicode="&#x44e;" 
d="M192 0v64h192v-64h-192zM384 64v256h64v-256h-64zM0 0v384h64v-128h64v64h64v-256h-64v128h-64v-192h-64zM192 320v64h192v-64h-192z" />
    <glyph glyph-name="uni044F" unicode="&#x44f;" 
d="M64 0v64h64v-64h-64zM64 192v128h64v-128h-64zM320 0v128h-128v-64h-64v128h192v128h-192v64h256v-384h-64z" />
    <glyph glyph-name="uni0450" unicode="&#x450;" 
d="M128 0v64h192v-64h-192zM320 64v64h64v-64h-64zM64 64v256h64v-64h192v64h64v-128h-256v-128h-64zM128 320v64h192v-64h-192zM192 448v64h64v-64h-64zM128 512v64h64v-64h-64z" />
    <glyph glyph-name="uni0451" unicode="&#x451;" 
d="M128 0v64h192v-64h-192zM320 64v64h64v-64h-64zM64 64v256h64v-64h192v64h64v-128h-256v-128h-64zM128 320v64h192v-64h-192zM128 448v64h64v-64h-64zM256 448v64h64v-64h-64z" />
    <glyph glyph-name="uni0452" unicode="&#x452;" 
d="M320 -192v64h64v-64h-64zM384 -128v448h64v-448h-64zM128 0v448h-64v64h64v64h64v-64h128v-64h-128v-64h192v-64h-192v-320h-64z" />
    <glyph glyph-name="uni0454" unicode="&#x454;" 
d="M128 0v64h192v-64h-192zM320 64v64h64v-64h-64zM64 64v256h64v-64h128v-64h-128v-128h-64zM320 256v64h64v-64h-64zM128 320v64h192v-64h-192z" />
    <glyph glyph-name="uni0455" unicode="&#x455;" 
d="M64 0v64h256v-64h-256zM320 64v64h64v-64h-64zM256 128v64h64v-64h-64zM128 192v64h128v-64h-128zM64 256v64h64v-64h-64zM128 320v64h256v-64h-256z" />
    <glyph glyph-name="uni0456" unicode="&#x456;" 
d="M192 0v320h-64v64h128v-384h-64zM192 512v64h64v-64h-64z" />
    <glyph glyph-name="uni0457" unicode="&#x457;" 
d="M192 0v320h-64v64h128v-384h-64zM128 512v64h64v-64h-64zM256 512v64h64v-64h-64z" />
    <glyph glyph-name="uni0458" unicode="&#x458;" 
d="M64 -128v64h192v-64h-192zM256 -64v384h-64v64h128v-448h-64zM256 512v64h64v-64h-64z" />
    <glyph glyph-name="uni0459" unicode="&#x459;" 
d="M0 0v64h64v-64h-64zM384 64v128h64v-128h-64zM256 0v320h-128v-256h-64v320h256v-128h64v-64h-64v-128h64v-64h-128z" />
    <glyph glyph-name="uni045A" unicode="&#x45a;" 
d="M384 64v128h64v-128h-64zM0 0v384h64v-128h192v128h64v-128h64v-64h-64v-128h64v-64h-128v192h-192v-192h-64z" />
    <glyph glyph-name="uni045B" unicode="&#x45b;" 
d="M320 0v320h64v-320h-64zM64 0v448h-64v64h64v64h64v-64h128v-64h-128v-64h192v-64h-192v-320h-64z" />
    <glyph glyph-name="uni045E" unicode="&#x45e;" 
d="M128 -192v64h64v-64h-64zM192 -128v192h64v-192h-64zM128 64v192h64v-192h-64zM256 64v192h64v-192h-64zM64 256v128h64v-128h-64zM320 256v128h64v-128h-64zM192 384v64h64v-64h-64zM128 448v64h64v-64h-64zM256 448v64h64v-64h-64z" />
    <glyph glyph-name="uni045F" unicode="&#x45f;" 
d="M192 -128v128h-128v384h64v-320h192v320h64v-384h-128v-128h-64z" />
    <glyph glyph-name="uni05D0" unicode="&#x5d0;" 
d="M384 0v128h64v-128h-64zM320 128v64h64v-64h-64zM256 192v64h64v-64h-64zM64 0v320h64v-256h64v-64h-128zM192 256v64h64v-64h-64zM128 320v64h64v-64h-64zM64 384v64h64v-64h-64zM384 192v192h-64v64h128v-256h-64z" />
    <glyph glyph-name="uni05D1" unicode="&#x5d1;" 
d="M64 0v64h256v320h64v-320h64v-64h-384zM128 384v64h192v-64h-192z" />
    <glyph glyph-name="uni05D2" unicode="&#x5d2;" 
d="M128 0v64h64v-64h-64zM192 64v64h64v-64h-64zM320 0v128h-64v64h64v192h64v-384h-64zM192 384v64h128v-64h-128z" />
    <glyph glyph-name="uni05D3" unicode="&#x5d3;" 
d="M320 0v384h-256v64h384v-64h-64v-384h-64z" />
    <glyph glyph-name="uni05D4" unicode="&#x5d4;" 
d="M64 0v192h64v-192h-64zM384 0v384h64v-384h-64zM64 384v64h320v-64h-320z" />
    <glyph glyph-name="uni05D5" unicode="&#x5d5;" 
d="M256 0v384h64v-384h-64zM192 384v64h64v-64h-64z" />
    <glyph glyph-name="uni05D6" unicode="&#x5d6;" 
d="M192 0v320h64v-320h-64zM256 320v64h-128v64h256v-64h-64v-64h-64z" />
    <glyph glyph-name="uni05D7" unicode="&#x5d7;" 
d="M384 0v384h64v-384h-64zM64 0v448h320v-64h-256v-384h-64z" />
    <glyph glyph-name="uni05D8" unicode="&#x5d8;" 
d="M128 0v64h256v-64h-256zM256 320v64h64v-64h-64zM64 64v384h64v-384h-64zM384 64v320h-64v64h128v-384h-64z" />
    <glyph glyph-name="uni05D9" unicode="&#x5d9;" 
d="M256 192v192h64v-192h-64zM192 384v64h64v-64h-64z" />
    <glyph glyph-name="uni05DA" unicode="&#x5da;" 
d="M320 -192v576h64v-576h-64zM64 384v64h256v-64h-256z" />
    <glyph glyph-name="uni05DB" unicode="&#x5db;" 
d="M64 0v64h256v-64h-256zM320 64v320h64v-320h-64zM64 384v64h256v-64h-256z" />
    <glyph glyph-name="uni05DC" unicode="&#x5dc;" 
d="M128 0v128h64v-128h-64zM192 128v64h64v-64h-64zM256 192v64h64v-64h-64zM320 256v128h-256v192h64v-128h256v-192h-64z" />
    <glyph glyph-name="uni05DD" unicode="&#x5dd;" 
d="M64 0v320h64v-256h256v320h64v-384h-384zM128 320v64h-128v64h384v-64h-192v-64h-64z" />
    <glyph glyph-name="uni05DE" unicode="&#x5de;" 
d="M64 0v256h64v-256h-64zM128 256v128h128v-64h-64v-64h-64zM256 0v64h128v320h64v-384h-192zM64 384v64h64v-64h-64zM256 384v64h128v-64h-128z" />
    <glyph glyph-name="uni05DF" unicode="&#x5df;" 
d="M256 -192v576h64v-576h-64zM192 384v64h64v-64h-64z" />
    <glyph glyph-name="uni05E0" unicode="&#x5e0;" 
d="M128 0v64h128v320h64v-384h-192zM192 384v64h64v-64h-64z" />
    <glyph glyph-name="uni05E1" unicode="&#x5e1;" 
d="M192 0v64h128v-64h-128zM128 64v64h64v-64h-64zM320 64v64h64v-64h-64zM64 128v192h64v-192h-64zM384 128v192h64v-192h-64zM128 320v64h-64v64h320v-128h-64v64h-128v-64h-64z" />
    <glyph glyph-name="uni05E2" unicode="&#x5e2;" 
d="M64 0v64h128v192h64v-192h128v-64h-320zM128 256v128h64v-128h-64zM64 384v64h64v-64h-64zM384 64v384h64v-384h-64z" />
    <glyph glyph-name="uni05E3" unicode="&#x5e3;" 
d="M64 192v192h64v-128h128v-64h-192zM384 -192v576h64v-576h-64zM128 384v64h256v-64h-256z" />
    <glyph glyph-name="uni05E4" unicode="&#x5e4;" 
d="M64 192v192h64v-128h128v-64h-192zM64 0v64h320v320h64v-384h-384zM128 384v64h256v-64h-256z" />
    <glyph glyph-name="uni05E5" unicode="&#x5e5;" 
d="M192 -192v384h64v-384h-64zM256 192v64h64v-64h-64zM128 192v128h64v-128h-64zM64 320v128h64v-128h-64zM320 256v192h64v-192h-64z" />
    <glyph glyph-name="uni05E6" unicode="&#x5e6;" 
d="M64 0v64h256v64h64v-128h-320zM256 128v64h-64v64h128v-128h-64zM128 256v64h64v-64h-64zM64 320v128h64v-128h-64zM320 256v192h64v-192h-64z" />
    <glyph glyph-name="uni05E7" unicode="&#x5e7;" 
d="M64 -192v384h64v-384h-64zM192 0v192h64v-192h-64zM256 192v64h64v-64h-64zM320 256v128h-256v64h320v-192h-64z" />
    <glyph glyph-name="uni05E8" unicode="&#x5e8;" 
d="M320 0v384h64v-384h-64zM64 384v64h256v-64h-256z" />
    <glyph glyph-name="uni05E9" unicode="&#x5e9;" 
d="M128 0v64h192v-64h-192zM64 64v64h64v-64h-64zM320 64v64h64v-64h-64zM128 128v64h64v-64h-64zM0 128v320h64v-320h-64zM192 192v256h64v-256h-64zM384 128v320h64v-320h-64z" />
    <glyph glyph-name="uni05EA" unicode="&#x5ea;" 
d="M384 0v384h64v-384h-64zM0 0v64h64v320h-64v64h384v-64h-256v-384h-128z" />
    <glyph glyph-name="uni05F3" unicode="&#x5f3;" 
d="M192 384v64h64v-64h-64zM256 448v64h64v-64h-64z" />
    <glyph glyph-name="uni05F4" unicode="&#x5f4;" 
d="M64 384v64h64v-64h-64zM256 384v64h64v-64h-64zM128 448v64h64v-64h-64zM320 448v64h64v-64h-64z" />
    <glyph glyph-name="quoteleft" unicode="&#x2018;" 
d="M256 384v64h64v-64h-64zM192 448v128h64v-128h-64z" />
    <glyph glyph-name="quoteright" unicode="&#x2019;" 
d="M128 384v64h64v-64h-64zM192 448v128h64v-128h-64z" />
    <glyph glyph-name="quotesinglbase" unicode="&#x201a;" 
d="M128 -128v64h64v-64h-64zM192 -64v192h64v-192h-64z" />
    <glyph glyph-name="quotereversed" unicode="&#x201b;" 
d="M192 320v64h64v-64h-64zM128 384v192h64v-192h-64z" />
    <glyph glyph-name="quotedblleft" unicode="&#x201c;" 
d="M192 384v64h64v-64h-64zM320 384v64h64v-64h-64zM128 448v128h64v-128h-64zM256 448v128h64v-128h-64z" />
    <glyph glyph-name="quotedblright" unicode="&#x201d;" 
d="M64 384v64h64v-64h-64zM192 384v64h64v-64h-64zM128 448v128h64v-128h-64zM256 448v128h64v-128h-64z" />
    <glyph glyph-name="quotedblbase" unicode="&#x201e;" 
d="M64 -128v64h64v-64h-64zM192 -128v64h64v-64h-64zM128 -64v192h64v-192h-64zM256 -64v192h64v-192h-64z" />
    <glyph glyph-name="guilsinglleft" unicode="&#x2039;" 
d="M192 64v64h64v-64h-64zM128 128v64h64v-64h-64zM64 192v64h64v-64h-64zM128 256v64h64v-64h-64zM192 320v64h64v-64h-64z" />
    <glyph glyph-name="guilsinglright" unicode="&#x203a;" 
d="M64 64v64h64v-64h-64zM128 128v64h64v-64h-64zM192 192v64h64v-64h-64zM128 256v64h64v-64h-64zM64 320v64h64v-64h-64z" />
    <glyph glyph-name="Euro" unicode="&#x20ac;" 
d="M192 0v64h192v-64h-192zM384 64v64h64v-64h-64zM128 64v64h-64v64h64v64h-64v64h64v64h64v-64h128v-64h-128v-64h128v-64h-128v-64h-64zM384 320v64h64v-64h-64zM192 384v64h192v-64h-192z" />
    <glyph glyph-name="trademark" unicode="&#x2122;" 
d="M64 256v192h-64v64h192v-64h-64v-192h-64zM256 256v256h64v-64h64v64h64v-256h-64v128h-64v-128h-64z" />
    <glyph glyph-name="summation" unicode="&#x2211;" 
d="M0 0v128h64v-64h256v-64h-320zM64 128v64h64v-64h-64zM128 192v64h64v-64h-64zM192 256v64h64v-64h-64zM128 320v64h64v-64h-64zM64 384v64h-64v64h320v-64h-192v-64h-64z" />
    <glyph glyph-name="radical" unicode="&#x221a;" 
d="M192 0v128h64v-128h-64zM128 128v128h64v-128h-64zM256 128v192h64v-192h-64zM64 256v64h-64v64h128v-128h-64zM320 320v128h64v-128h-64zM384 448v128h64v-128h-64z" />
    <glyph glyph-name="infinity" unicode="&#x221e;" 
d="M192 192v64h-64v-64h64zM384 192v64h-64v-64h64zM64 128v192h384v-192h-384z" />
    <glyph glyph-name="integral" unicode="&#x222b;" 
d="M0 -128v64h64v-64h-64zM64 -64v640h64v-640h-64zM128 576v64h64v-64h-64z" />
    <glyph glyph-name="uni2317" unicode="&#x2317;" 
d="M320 128v128h-128v-128h128zM128 0v64h-64v64h64v128h-64v64h64v64h64v-64h128v64h64v-64h64v-64h-64v-128h64v-64h-64v-64h-64v64h-128v-64h-64z" />
    <glyph glyph-name="glyph1" 
 />
    <glyph glyph-name="glyph2" horiz-adv-x="128" 
 />
  </font>
</defs>
</svg>
